<svg xmlns="http://www.w3.org/2000/svg" viewBox="0 0 2416 1606"><defs><style>.a{fill:#fff;}.b{fill:#1976d2;}.c{fill:#ddeefd;}.d{fill:#09264a;}.e{fill:#0d47a1;}</style></defs><rect class="a" width="2416" height="1606"/><path class="b" d="M465.1,915.8c-3.1,6.7-4.3,14.5-5.3,21.7-1.7,11.6-2.6,23.3-3.2,35-.9,15.1-1.3,30.2-1.5,45.3-.3,17.3-.3,34.6-.2,51.9s.5,37.3.9,55.9,1,37.5,1.6,56.3,1.2,35.5,1.9,53.3c.5,15.8,1.2,31.6,1.8,47.4.5,12.7,1,25.5,1.4,38.2.3,8.5.6,17,.7,25.5v4c0,3,9.8,4.2,9.8,1.8.1-7.3-.2-14.7-.4-22.1-.4-11.7-.8-23.5-1.3-35.2l-1.8-45.5c-.6-17.3-1.3-34.7-1.8-52.1s-1.2-37.2-1.7-55.9-.9-37.5-1.1-56.3-.3-35.4-.2-53.1c.2-15.8.5-31.5,1.2-47.3.5-12.6,1.3-25.3,2.7-37.9,1-8.4,2.1-17,4.8-25.1a22.6,22.6,0,0,1,1.5-3.9c.9-2-8.5-4.7-9.8-1.9Z"/><path class="b" d="M458.6,909.5a328.4,328.4,0,0,0-23.3,42.3c-1.9,4.2-3.7,8.3-5.5,12.6-.5,1.2.9,2.8,1.6,3.4a12.2,12.2,0,0,0,5.1,2.5c3,.5,7.3.7,8.6-2.6,2.7-6.6,5.6-13.1,8.8-19.5l-.6,1.1A322.1,322.1,0,0,1,472.8,915c1.9-2.9-1.8-5.5-4.2-6.4a13.7,13.7,0,0,0-6-.8c-1.3.1-3.2.5-4,1.7Z"/><path class="b" d="M464,914.4a236.2,236.2,0,0,0,10.6,53.4c1.6,4.9,3.4,9.8,5.3,14.6s5.2,5.2,8.7,5.2a8.3,8.3,0,0,0,5.1-1.3c.9-.8,2-2.1,1.5-3.5A233.1,233.1,0,0,1,481,930.3c-.7-5.2-1.3-10.3-1.7-15.4-.1-1.5-1.9-2.9-3-3.6a11.9,11.9,0,0,0-5.8-1.7c-3.1.1-6.8,1.1-6.5,4.8Z"/><path class="b" d="M1591.7,582.5c-3-3.4-7.2-6-11-8.4-6.1-3.9-12.4-7.4-18.7-10.8-20.1-10.9-40.7-20.8-61.4-30.6-27.8-13.1-55.8-25.8-83.9-38.4q-50.2-22.5-100.8-44.3c-36.5-15.9-73.1-31.5-109.8-47.1s-73.7-31.3-110.6-46.8L991.3,312.5l-90.6-37.7-68.6-28.5-39.5-16.6-4.3-1.9c-3.7-1.6-9.9-3.1-13.8-1.2s.3,4.8,2.6,5.9c10.3,4.6,20.7,8.8,31.1,13.1l62.2,25.9,85.3,35.4,101.4,42.4,109.7,46.3q55,23.4,110,47,51.9,22.3,103.6,45.2c29.7,13.2,59.4,26.5,89,40.2,22.4,10.4,44.7,21,66.7,32.2h0l1.6.9,3.4,1.7,5.8,3.1,10.3,5.8c2.9,1.6,5.7,3.3,8.4,5l3.3,2.2,1.4.9c1.1.8,1.1,1,0,.1a38.7,38.7,0,0,1,3.7,3.2c2.8,3.3,9.2,4.1,13.2,3.9s7.5-1.2,4.5-4.5Z"/><path class="b" d="M1595.8,580a334.2,334.2,0,0,0-29.1-37.9c-3.2-3.6-6.5-7.2-9.9-10.6-1.2-1.3-3.5-2.1-5.1-2.5a12.2,12.2,0,0,0-5.7.1c-1.2.4-2.7,1.1-2.9,2.5s.6,2.4,1.6,3.4l4.1,4.4,1.9,2,.9,1h.1c-.5-.6.2.2.2.3,2.7,2.9,5.3,6,7.8,9,5,6,9.8,12.1,14.3,18.4,2.6,3.7,5.2,7.4,7.6,11.2s6.8,4.2,10.2,3.8,6-2.1,4-5.2Z"/><path class="b" d="M1587.1,581a254.5,254.5,0,0,0-57.1-12.5c-5.2-.5-10.4-.9-15.6-1.1a9.3,9.3,0,0,0-5.1,1.3,3.7,3.7,0,0,0-1.5,3.5c1,3.6,5.6,5.1,8.8,5.2s9,.5,13.5.9l3.3.3,1.4.2h.3l6.8.9a233.1,233.1,0,0,1,26.1,5.6l1.8.5,1,.2-.7-.2,3.6,1.1,7.5,2.4a11.2,11.2,0,0,0,6,.7c1.3-.2,3.3-.8,4.1-2.1,1.8-3.1-1.5-6-4.2-6.9Z"/><path class="b" d="M1600.4,924.7l.6.2-1.1-.5-1.4-.6c-.8-.4,1.6.9-.2-.1s-4.8-2.8-7.1-4.3c-7.2-4.6-14.1-9.6-21-14.7l-6.5-4.9a9.1,9.1,0,0,0-1.6-1.1c-1.3-1-.1-.2-1.1-.9l-3.6-2.8c-5.1-3.8-10.1-7.7-15.1-11.7q-18-13.9-35.7-28.4-44.1-35.7-87.5-72.2-51.9-43.4-103.2-87.2-55.8-47.4-111.2-95.3t-112-96.8L988.1,412.5,898.2,334l-67.5-59.1-37.6-32.8-3.8-3.2a14.5,14.5,0,0,0-9.9-2.9c-1.5.1-6,1.1-3.3,3.4,9.9,8.4,19.7,17.1,29.5,25.7l61.6,53.8,85.4,74.6q51.1,44.7,102.5,89.2,55.4,48.1,111,96.2t112.4,96.5q52.8,45.1,106.1,90c30.4,25.5,60.8,50.9,91.6,76,23.1,18.9,46.4,37.7,70.2,55.8,13.3,10.2,26.8,21.1,41.6,29a49.7,49.7,0,0,0,7.5,3.2c2.2.6,7.6,1.9,9.4-.3s-3.2-4.1-4.5-4.4Z"/><path class="b" d="M1597.4,928.7l-1.8-.2c-.9-.2-.7-.1.6,0h-1l-3.7-.6c-2.4-.3-4.8-.8-7.1-1.2-5-.9-9.9-1.9-14.8-3s-9.6-2.4-14.4-3.7l-3.5-1c-.5-.1-2.7-.8-.3-.1l-1.8-.5-7.3-2.3a13.5,13.5,0,0,0-6-.9c-1.2.1-3.3.6-4,1.7-1.9,2.9,1.8,5.6,4.2,6.4a332.3,332.3,0,0,0,48.1,12.2c5.1.9,10.1,1.7,15.1,2.3a8.6,8.6,0,0,0,5-.9,2.8,2.8,0,0,0,1.5-3.1c-1-3.5-5.7-4.6-8.8-5Z"/><path class="b" d="M1606.7,924.9c-3.2-3.3-6.3-6.6-9.3-10-.7-.8-1.4-1.5-2-2.3l-1.2-1.4-.5-.6h.1l-4.3-5.3a243.7,243.7,0,0,1-15.4-22.2c-2.6-4.4-5.2-8.9-7.6-13.5-.7-1.4-2.7-2.5-4.1-3.1a13.6,13.6,0,0,0-6-.7c-3.1.6-5.8,2.7-4.1,6a246.2,246.2,0,0,0,31.6,46.1c3.4,3.9,7,7.7,10.6,11.4a10.9,10.9,0,0,0,10.9,2.2c1.2-.5,2.7-1.4,2.9-2.9a4.3,4.3,0,0,0-1.6-3.8Z"/><path class="c" d="M1733,107.2c-9.7-8.6-22.9-13.3-35-17.2a227.2,227.2,0,0,0-44.4-9.7,99.5,99.5,0,0,0-20.4-.6c-.5,0-.5,21.4-.5,18.5-.1,15-.2,29.9-.1,44.9,0,4.6.2,63.4.6,63.3q62-1.8,123.8-2.6c43.2-.6,86.3-.8,129.4-.9s86.3.3,129.4.8,84,1.3,126,2.4c20.7.5,41.4.8,62.1,2.1s42.8,3.8,63.3,10.3a157,157,0,0,1,14.9,5.6V97.3c-38,12-78.1,12.4-117.5,10.1s-78.6-6.1-118-8c-78.7-3.7-158.6-2-235.5,16.6-20.4,4.9-40.8,10.7-60.2,18.7-17.7,7.5-34.5,17.5-47.3,32.1a33.3,33.3,0,0,0-.2,5.5c-.2,4.3-.2,8.7-.2,13.1-.2,14.9-.2,29.8-.2,44.8s0,29.9.2,44.8v9.9a63.3,63.3,0,0,0,.3,8.7c4.5,10.7,15.6,15.2,26.3,17.4s23.9,2.9,35.7,3.8c26,2,52.2,2.8,78.3,2.9A1227,1227,0,0,0,2009.8,307a811.4,811.4,0,0,0,84.6-15.5c.7-.2.5-21.3.5-18.6.1-14.9.2-29.9.1-44.8s0-29.9-.1-44.8l-.2-9.9a63.3,63.3,0,0,0-.3-8.7c-33-9.7-66.8-16.4-100.9-21.1a902,902,0,0,0-110.1-8.4,921.4,921.4,0,0,0-110.2,4.5c-33.7,3.4-67.9,8.3-100.7,17.2-13.8,3.8-29.3,9.7-37.4,22.3a32.7,32.7,0,0,0-4.3,10.4c-.4,2.3-.6,4.5-.8,6.8-1,18.1-.5,36.4-.5,54.5,0,22.4-.1,44.8.4,67.2a71.3,71.3,0,0,0,.7,10.3,38.2,38.2,0,0,0,3.6,10.3c7.5,14.2,22.2,24.3,36.7,30.4,18.5,7.7,38.4,12.3,58.3,15.2,40.4,5.9,81.9,5.7,122.7,4.2a974.6,974.6,0,0,0,122.9-12.4,995.2,995.2,0,0,0,120.7-27.7q29.7-8.8,58.8-19.5c9.5-3.5,19-6.9,28.3-10.9,3.7-1.5,7.3-3.4,9.8-6.6a11.9,11.9,0,0,0,2.1-4.4c.2-1.2.2-2.5.3-3.7.5-9.8.3-19.7.4-29.5.2-29,.3-57.9-.2-86.8-.1-3.7.3-8.3-.8-12s-3-5-6.1-5.2c-.3,0-.6,58.7-.6,63.4,0,15,0,29.9.2,44.9V288c0,2.9.1,5.7.3,8.6,15.4,15.5,43.9,10,53.2-9.5a49.6,49.6,0,0,0,.2-5.5c.1-4.3.2-8.7.2-13.1.2-14.9.2-29.8.2-44.8s0-29.9-.2-44.8V169q0-4.4-.3-8.7c-6.8,6-10.6,12.7-11,21.8-.8,15-.4,30.1-.5,45.1,0,25.1-.2,50.1.4,75.2a54,54,0,0,0,.8,9.8,33.8,33.8,0,0,0,3.8,9.7c7.8,13.8,21,23.8,32.1,34.9,3.8,3.9,9.4,9,10,14.9l-.2-2.3a.9.9,0,0,1,.1.5l-.4-29.2v.2l.4-93.1a.6.6,0,0,1-.1.4l.2-2.2c-.5,5.5-7.6,7.5-12,8.6a139.3,139.3,0,0,1-19.2,3c-15.9,1.7-31.9,2.5-47.9,3.1-20.8.7-41.7,1-62.5,1.1-24.4.1-48.9-.1-73.3-.4-26.6-.3-53.1-.8-79.6-1.3l-81.4-1.7-78.9-1.5q-35.8-.6-71.7-.8c-20.2-.1-40.5,0-60.8.5-15,.4-30.1.9-45.1,2.3-2.7.2-5.5.5-8.2.9-.5.1-.5,21.4-.4,18.6-.2,14.9-.2,29.8-.2,44.8s0,29.9.2,44.8c0,1.8.4,18.6.4,18.6,16.8-2.2,33.8-2.7,50.7-3.2,24.6-.6,49.2-.6,73.7-.4,29.6.1,59.1.6,88.7,1.2l96.2,1.9c32.2.7,64.3,1.3,96.5,1.8,29.8.4,59.7.7,89.5.7,24.8-.1,49.5-.4,74.3-1.4,17.3-.8,34.8-1.7,52-4.4,5.7-1,16.6-2.1,18.8-8.8a23.3,23.3,0,0,0,.4-3.6c.3-5.5.2-11.1.3-16.6q.3-30.9.1-61.7c0-15.3.7-30.8-.5-46.1a23.6,23.6,0,0,0-.4-2.8c-.9-2.9-2.9-5.5-4.8-7.8-12-14.3-28.8-24.6-37.6-41.4a30.7,30.7,0,0,1-3.7-11.8l.2,2.3c-.2-2.1-.1-5,.1,4.8l.2,86.7q-1.2,42.2-.3,27.6l-.2,2.3c.6-7.7,5.2-13.9,10.8-18.8V160.3c-9.3,19.5-37.8,25-53.2,9.5V296.6c4.2.2,6.2,4.1,6.5,7.8V179.1c-.9,8.3-10.3,11.5-16.9,14.1-9.7,3.8-19.3,7.5-29.1,11-19.3,6.9-38.7,13.2-58.4,18.9a994.7,994.7,0,0,1-120.8,27.1A1003.9,1003.9,0,0,1,1847,261.9c-40.5,1.3-81.9,1.3-122-5.1-19.3-3-39.3-7.6-57.1-15.9-14.2-6.5-28.7-17.1-35-31.8a38.4,38.4,0,0,1-2.7-10.6l.2,2.3c-.3-5.7-.3-1.1.2,13.7V318.7l-.2,2.2c2.4-30.6,40.4-37.3,64.4-42.4a754.4,754.4,0,0,1,94.5-13.5,934.6,934.6,0,0,1,201.3,4.9,695.8,695.8,0,0,1,104,21.6V164.7c-51.3,12.5-104,19.1-156.6,22.9-54.3,3.9-109,4.6-163.4,1-13.4-.8-27.2-1.6-40.5-3.7s-25.2-6.1-30.3-18.1V293.6c23.6-27,59.9-38.2,93.4-47.2,37.8-10.2,76.6-16.2,115.7-19.2,79.2-6.1,158.2.4,237.3,6,44.1,3.2,89.4,4.3,132.1-9.1.8-.2.5-21.1.5-18.6.1-14.9.2-29.9.1-44.8s0-29.9-.1-44.8l-.2-9.9a63.3,63.3,0,0,0-.3-8.7c-39.3-16.8-83.2-16.5-125.2-17.6s-83.4-2-125.1-2.6-86.2-.9-129.2-.9-86.5.1-129.7.6q-62.4.8-124.8,2.4l-14.9.5V206.4c13-1.1,26.5,1.1,39.2,3.7a204.9,204.9,0,0,1,43.3,13.4,69.2,69.2,0,0,1,17.3,10.4,32.5,32.5,0,0,0,.2-5.4c.2-4.4.2-8.7.2-13.1.2-15,.2-29.9.2-44.8s0-29.9-.2-44.9v-9.9a61.3,61.3,0,0,0-.3-8.6Z"/><path class="d" d="M1917.8,225.3c.4.4.5.6.4.9-4.1,11.4-11.7,23.4-18.6,30.3a6.5,6.5,0,0,1-2.3,1.5c-.3.3-.6,1-1.2,1.3-3.8,2.6-4,2.6-7.3,2.6h-3.5a3.7,3.7,0,0,1-1.8-1c-.4-.3-1.4-.3-2.1-1a26.1,26.1,0,0,1-4.4-4.4l-2.4-3.9a41.7,41.7,0,0,1-1.8-6.3,35.2,35.2,0,0,1-.5-5.6c0-.4.1-3.5.5-6.8a49.1,49.1,0,0,1,1.5-5.7c.3-.4.1-1.4.5-2.1s1.6-4.3,2.3-6.5a4,4,0,0,0,1.1-2.1c1.1-4.2,11.6-21.9,17.3-21.9.7,0,2.3.9,2.9.9s1.4-.7,2.1-.7a11.9,11.9,0,0,1,2.5.5,7.8,7.8,0,0,0,2.6.4,14.6,14.6,0,0,1,4.4,2c1.8,1.2,2.9,2.7,4.3,3.9s-.2.8,0,1.1,1.8,3,2.8,4.1.9,3.4,1.3,5.1a13,13,0,0,1,.1,6.2,1.5,1.5,0,0,1,.4,1.1c-.1,1.1-1.5,2.2-.1,3.6l.6-.4C1919,223.2,1918.8,224.9,1917.8,225.3Zm-5.5-11.3a41.8,41.8,0,0,0-.8-6.8c0-.3-2-6.5-4.5-6.5s-3.2,1-6.2,3.3a4.5,4.5,0,0,1-1.5.7c-1.4,1.1-2.3,3-3.9,4s-.2.8-.6,1.1-.5-.6-.8-.3-.7,1.3-1.4,1.3.1-.2-.3-.2-.3.6-1,.6,0-.4-.5-.4-1.5,1.6-1.9,2.4v.8c-.7,1.8-1.4,3.3-2.1,4.8s-1.1,3.3-1.6,4.4-1.3,2.3-1.7,3.4-1.1,5-1.7,7.4a63.3,63.3,0,0,0-1.4,7.7c-.1.7-.2,2.2-.2,2.7,0,2.5,1.2,10.5,3.1,11.7,5,.3,12.4-8.5,16.3-13.2.7-.7.5-1.7.9-2a14.1,14.1,0,0,0,1.7-1.8c.2-.4.1-1.3.5-1.7s1-.8,1.7-1.1-.1-.5-.1-.8c2.5-4.7,5.3-9.7,7-14.8.3-1.5.8-4.9,1.6-6.1S1912.6,214.4,1912.3,214Z"/><path class="d" d="M1955.8,254.7a.5.5,0,0,0,.5.5c-1.4.5-3.5,1.9-3.9,1.9s-.1-.2-.8-.2l-5.1,1.3c-6.3.7-12.8,2.8-18.3,2.8a28.6,28.6,0,0,1-6-1.1,18.9,18.9,0,0,1-4.1-4.3c-.8-1.2-.9-2.8-1.2-4.2a1.8,1.8,0,0,1-.4-1.4c0-4.3,4-13,5.5-17s1.7-6,2.8-8.9a8.1,8.1,0,0,0,.6-1.3c1.1-4.2,3.4-10.1,3.9-15.2a8.2,8.2,0,0,0,.9-3.4c.2-1.5.8-3.5,1.1-5.2a14.8,14.8,0,0,0,.1-2.3h2.4c3.9,1.8,4.2,4.6,4.2,6.8,0,.4-.3,1.5-.3,2.1a24,24,0,0,1-1.1,6.4c-2.3,8.4-3.2,14.1-6.1,22-1.9,5.1-4.1,11.7-6,17.8v.5l18.8-1.7h8c.3,0,3.2-.6,4.5-.7h0c.5.5.8,1.4,1.5,1.8a8.9,8.9,0,0,0,.2,1.5A9.5,9.5,0,0,0,1955.8,254.7Z"/><path class="d" d="M1989.3,240.4l-2.2.4a21.3,21.3,0,0,0-.8,2.7c-.4.6-.1,1.1.2,1.8s-.5.2-.6.5c-.3,2.9.2,6.9-.5,10.1s.7,5.5-1.2,9.4a5.7,5.7,0,0,0-.4,2.2c-.2,0-.2.3-.6.3a.9.9,0,0,0-.8.7,17.1,17.1,0,0,0-2.7-1.3c-2.2-3.3-1.1-6.5-1.1-10.1a12.2,12.2,0,0,1,0-3.3l.2-11.9h-3.3a50.6,50.6,0,0,0-9.4,2.6c-1.4,2.5-2.4,5.5-4.3,8.8a4.4,4.4,0,0,0-1.2,1.6,24.1,24.1,0,0,0-1.6,4.5c-.4,0-.2-.4-.5-.6a2.5,2.5,0,0,0-.4,1.3c-.3,0-.4.3-.6-.1l-.5.5c-.3-.5-1.1-.6-1.7-1s-1-1.6-1-2.3a27.8,27.8,0,0,1,2-6.4,33.6,33.6,0,0,1,2.1-5c-1.4-1-3.3-2-4.4-2.9a16.7,16.7,0,0,1-2.1-3.9c0-.4.9-1.2,1.2-1.5a1.3,1.3,0,0,0,1,.4,14.8,14.8,0,0,0,4.1-1.2,11.9,11.9,0,0,0,4.5-.8c3.9-8.2,7.6-17.6,11.5-25.2q1.2-2.5,4.2-8.1c1-1.6,2.8-3.6,4.2-6a8.3,8.3,0,0,0,.5-3.2h.1l.4-.3c.7,0,1,.3,1.6.3s.6.3,1,0,.2.7.8.7-.2-.2.5-.2a4.2,4.2,0,0,1,2.1,2.5c1,2,.8,6.1.8,6.7s-.3,2-.4,2.8.2,2,.1,3.2c-.6,5.1-1.3,10.2-1.5,15.3l-1.5,10.5h1a46.5,46.5,0,0,0,7.5.5c0,.3,0,.6.4.6l-.4.6c0,.6.6,1.1,1.2,1.4A66.8,66.8,0,0,1,1989.3,240.4Zm-8.8-25.3c-3.9,6.1-6.7,14-9.6,19.9,2.3,0,4.4.9,8,.2Z"/><path class="d" d="M2034.3,219.1a.8.8,0,0,0,0,.7,30.4,30.4,0,0,1-7.9,12.7c-4.7,4.1-10.6,7.9-14.1,9.3a11,11,0,0,1-2.5-.2,25,25,0,0,0-2.5.8c-.6,0-1-.2-1.1-.5h0a2,2,0,0,0-1.1,1.7c-.6,1.4-.8,4-1.5,6.2a42.1,42.1,0,0,0-1.8,4.7c-.3,2.2-.1,3.8-1.6,6.6l-.8,1.1c-.3,0-.4.2-1,.2s-.8-.5-1.3-.5-.5.3-.9.3-.1-1.2-.7-1.2-.3.1-.6.1.2.1.2-.5-.9-1.4-1.6-2.6-.1-.5-.1-1.1,2-4.6,2.2-5.9c1.5-5.6,3.2-11.2,4.6-16.7,2.3-9.5,4.8-19.5,7.3-29,.2-1.2.2-3.2.5-4.9-2.9-1.2-3.9-5.2-3.6-7.5l1.4-.7a10,10,0,0,1,3.3-.5h2.4c.6,0,.1.1.3.2s3.9,1.3,5.4,2,1.5.5,1.8.8c9,5.8,16.1,13,16.1,20.7A21.6,21.6,0,0,1,2034.3,219.1Zm-18.6-19.6c-.2,0,.2-.2-.2-.2l-1.3.2v1.1c0,.7.8,3,.7,4.1-.3,3-.9,6-1.3,8.5-1,4.3-2.5,9.6-3.2,12.6s-1.7,5.2-1.7,7.3a10.7,10.7,0,0,0,3-.6c-.8-1.2,1-1.3,1.6-1.9v.2h0c-.4.3.1.3.4.3a25.4,25.4,0,0,0,2.4-2h-.5c-.3-.4,0-.2,0-.5,6.5-3,12.7-12.6,12.7-19.1C2028.4,206.5,2019.6,199.5,2015.7,199.5Z"/><path class="e" d="M1620.4,81.4l.5,117.1.5,116.4.2,65.7c0,2.2,2.4,4.1,4.4,4.7s4.7,1,4.7-1.3l-.5-117.1-.5-116.5-.3-65.7c0-2.2-2.4-4-4.3-4.6s-4.7-1-4.7,1.3Z"/><path class="e" d="M1632.6,387.2c42.5-.1,85.1,1.9,127.7,2.7s85.1,1,127.7.9,86.2-.6,129.2-1.2l127.5-2.3c42.2-.8,84.3-1.3,126.5-.2l15.2.5c.6.1-1.5-4.4-1.7-4.7s-1.8-3.8-3.1-3.9c-41.9-1.6-83.9-1.3-125.9-.6l-127.2,2.3q-64.6,1.1-129.3,1.4c-42.6.2-85.2.1-127.9-.6s-85-2.5-127.5-2.8h-16.1c-.6,0,1.5,4.4,1.7,4.7s1.8,3.9,3.2,3.9Z"/><path class="e" d="M2277.2,81.4q-1.3,57.4-1.2,115c.1,37.8.6,75.7,1.5,113.5.6,21.3,1.2,42.5,2.1,63.7a5.3,5.3,0,0,0,4.9,4.9c2.6,0,4-2.3,3.9-4.7-1.4-37.8-2.5-75.6-3-113.4s-.7-75.4-.4-113.1q.3-31.7,1-63.2c0-2.6-1.1-5.1-3.8-5.9s-5,.7-5,3.2Z"/><path class="e" d="M1626.9,85.9l253.6.3,252.4.3h142.4c4.3.1-1.2-7.7-4.2-7.8l-253.6-.2-252.4-.3-142.4-.2c-4.3,0,1.2,7.8,4.2,7.8Z"/><path class="b" d="M1591.7,207c-12.1-5-26.3-5.3-39.2-6.1-21.9-1.4-44-1.7-66-1.8-29.4-.3-58.9,0-88.4.4-35,.5-70.1,1.2-105.1,2.1q-57,1.5-114,3.3c-38.3,1.2-76.7,2.6-115,4l-108.4,4.2L861.7,217l-71.5,3.1-41.6,1.7-4.7.2c-2.5.1-7.4,1.3-4.5,4.5s9.3,4.1,13.2,4l32.8-1.4,64.2-2.8,88.5-3.7,104.4-4.1c37.8-1.5,75.5-2.8,113.2-4.1s76.4-2.5,114.6-3.6c36-.9,72-1.8,108-2.4,31.1-.6,62.2-1,93.3-1l38.9.2,17.3.4h2l3.9.2,7.4.2q12.6.4,25.2,1.5l9.3,1c2.2.2-2.9-.5-.4-.1l2,.3,3.2.6c3.3.6-2.6-.8.2.1l1.1.3c.9.2-2.9-1.1-1.2-.4,3.8,1.5,9.9,3.2,13.8,1.2s-.2-4.9-2.6-5.9Z"/><path class="b" d="M1592.4,198.5a325,325,0,0,0-42.6-21.2l-14.1-5.5c-3.4-1.2-7,1.7-7,5.3a9.4,9.4,0,0,0,6.6,8.8l5.4,2.1,2.6,1,1.5.6.9.3.7.3,1.2.5,2.8,1.2,5.3,2.3c7.2,3.2,14.2,6.7,21.1,10.4q5.9,3.2,11.7,6.6c3,1.8,7.5.9,8.5-2.8s-1.3-7.9-4.6-9.9Z"/><path class="b" d="M1583.8,205.3a238.5,238.5,0,0,0-53.3,13c-5.2,1.9-10.2,4-15.2,6.3-1.3.5-1.5,2.4-1.3,3.4a9.2,9.2,0,0,0,2.9,4.3c2.8,2.3,6.4,3.8,9.9,2.3l3-1.3.8-.4h-.2l1.7-.7,6.3-2.5c4.3-1.6,8.6-3.1,12.9-4.4a242.5,242.5,0,0,1,26.4-6.6c5-1,10-1.7,15.1-2.4a3,3,0,0,0,2.5-2.6c.3-1.5-.7-3.2-1.5-4.3a11.7,11.7,0,0,0-10-4.2Z"/><path class="c" d="M1733,448.2c-9.7-8.6-22.9-13.3-35-17.2a234.7,234.7,0,0,0-44.4-9.7,107.1,107.1,0,0,0-20.4-.6c-.5,0-.5,21.4-.5,18.5-.1,15-.2,29.9-.1,44.9,0,4.6.2,63.4.6,63.4q62-1.8,123.8-2.6,64.8-.9,129.4-.9t129.4.7q63,.8,126,2.4c20.7.5,41.4.9,62.1,2.1s42.8,3.8,63.3,10.4a156.3,156.3,0,0,1,14.9,5.5V438.3c-38,12-78.1,12.4-117.5,10.1s-78.6-6.1-118-8c-78.7-3.7-158.6-2-235.5,16.6-20.4,4.9-40.8,10.7-60.2,18.8-17.7,7.4-34.5,17.4-47.3,32a33.7,33.7,0,0,0-.2,5.5c-.2,4.3-.2,8.7-.2,13.1-.2,14.9-.2,29.9-.2,44.8s0,29.9.2,44.8v10a62.4,62.4,0,0,0,.3,8.6c4.5,10.7,15.6,15.3,26.3,17.4s23.9,2.9,35.7,3.8c26,2,52.2,2.8,78.3,2.9A1227,1227,0,0,0,2009.8,648a811.4,811.4,0,0,0,84.6-15.5c.7-.1.5-21.2.5-18.6.1-14.9.2-29.8.1-44.8s0-29.9-.1-44.8l-.2-9.9a63.3,63.3,0,0,0-.3-8.7c-33-9.7-66.8-16.4-100.9-21.1a922.4,922.4,0,0,0-110.1-8.4,942.8,942.8,0,0,0-110.2,4.5c-33.7,3.4-67.9,8.3-100.7,17.3-13.8,3.7-29.3,9.6-37.4,22.2a33.3,33.3,0,0,0-4.3,10.5c-.4,2.2-.6,4.5-.8,6.7-1,18.1-.5,36.4-.5,54.5,0,22.4-.1,44.8.4,67.3a69.9,69.9,0,0,0,.7,10.2,38.2,38.2,0,0,0,3.6,10.3c7.5,14.2,22.2,24.3,36.7,30.4,18.5,7.7,38.4,12.3,58.3,15.2,40.4,5.9,81.9,5.8,122.7,4.2a974.6,974.6,0,0,0,122.9-12.4,995.2,995.2,0,0,0,120.7-27.7q29.7-8.9,58.8-19.5c9.5-3.5,19-6.9,28.3-10.9,3.7-1.5,7.3-3.4,9.8-6.6a11.2,11.2,0,0,0,2.1-4.4c.2-1.2.2-2.5.3-3.7.5-9.8.3-19.7.4-29.5.2-28.9.3-57.9-.2-86.8-.1-3.7.3-8.2-.8-11.9s-3-5.1-6.1-5.2c-.3-.1-.6,58.6-.6,63.3,0,15,0,29.9.2,44.9V629c0,2.9.1,5.8.3,8.6,15.4,15.6,43.9,10,53.2-9.5a48.7,48.7,0,0,0,.2-5.4c.1-4.4.2-8.8.2-13.1.2-15,.2-29.9.2-44.9s0-29.9-.2-44.8V510q0-4.3-.3-8.7c-6.8,6-10.6,12.8-11,21.9-.8,14.9-.4,30-.5,45,0,25.1-.2,50.2.4,75.2a53.3,53.3,0,0,0,.8,9.8,33.8,33.8,0,0,0,3.8,9.7c7.8,13.9,21,23.8,32.1,35,3.8,3.9,9.4,9,10,14.8l-.2-2.3a.9.9,0,0,1,.1.5l-.4-29.2v.3l.4-93.2a.9.9,0,0,1-.1.5l.2-2.3c-.5,5.5-7.6,7.5-12,8.6a139.3,139.3,0,0,1-19.2,3c-15.9,1.8-31.9,2.5-47.9,3.1-20.8.7-41.7,1-62.5,1.1-24.4.1-48.9-.1-73.3-.4-26.6-.3-53.1-.8-79.6-1.3l-81.4-1.7c-26.3-.5-52.6-1.1-78.9-1.5q-35.8-.6-71.7-.8c-20.2,0-40.5,0-60.8.5-15,.4-30.1.9-45.1,2.3l-8.2.9c-.5.1-.5,21.4-.4,18.6-.2,14.9-.2,29.9-.2,44.8s0,29.9.2,44.8c0,1.9.4,18.6.4,18.6,16.8-2.2,33.8-2.7,50.7-3.1,24.6-.7,49.2-.7,73.7-.5,29.6.2,59.1.6,88.7,1.2l96.2,1.9c32.2.7,64.3,1.4,96.5,1.8,29.8.5,59.7.8,89.5.7,24.8-.1,49.5-.4,74.3-1.4,17.3-.8,34.8-1.6,52-4.4,5.7-.9,16.6-2.1,18.8-8.8a22,22,0,0,0,.4-3.6c.3-5.5.2-11.1.3-16.6.2-20.6.2-41.1.1-61.7,0-15.3.7-30.8-.5-46.1a27,27,0,0,0-.4-2.8c-.9-2.9-2.9-5.5-4.8-7.8-12-14.2-28.8-24.6-37.6-41.4a30.8,30.8,0,0,1-3.7-11.7l.2,2.2c-.2-2.1-.1-4.9.1,4.8l.2,86.8c-.8,28-.9,37.2-.3,27.5l-.2,2.3c.6-7.7,5.2-13.9,10.8-18.8V501.3c-9.3,19.5-37.8,25.1-53.2,9.6V637.6c4.2.2,6.2,4.1,6.5,7.8V520.1c-.9,8.4-10.3,11.5-16.9,14.1-9.7,3.8-19.3,7.5-29.1,11-19.3,6.9-38.7,13.2-58.4,19a994.3,994.3,0,0,1-120.8,27A984.4,984.4,0,0,1,1847,602.9c-40.5,1.3-81.9,1.4-122-5-19.3-3.1-39.3-7.7-57.1-15.9-14.2-6.6-28.7-17.2-35-31.9a38.7,38.7,0,0,1-2.7-10.5l.2,2.2c-.3-5.7-.3-1.1.2,13.7V659.7l-.2,2.3c2.4-30.7,40.4-37.3,64.4-42.4a736.6,736.6,0,0,1,94.5-13.6,941.1,941.1,0,0,1,201.3,4.9,695.8,695.8,0,0,1,104,21.6V505.7c-51.3,12.5-104,19.1-156.6,22.9a1204,1204,0,0,1-163.4,1.1c-13.4-.9-27.2-1.7-40.5-3.8s-25.2-6-30.3-18.1V634.6c23.6-27,59.9-38.1,93.4-47.2,37.8-10.2,76.6-16.2,115.7-19.2,79.2-6.1,158.2.4,237.3,6,44.1,3.2,89.4,4.4,132.1-9.1.8-.2.5-21.1.5-18.5.1-15,.2-29.9.1-44.9s0-29.9-.1-44.8l-.2-9.9a63.3,63.3,0,0,0-.3-8.7c-39.3-16.8-83.2-16.4-125.2-17.6s-83.4-2-125.1-2.6-86.2-.9-129.2-.9-86.5.2-129.7.7c-41.6.5-83.2,1.2-124.8,2.4l-14.9.4V547.5c13-1.2,26.5,1,39.2,3.6a204.9,204.9,0,0,1,43.3,13.4c6.1,2.8,12.2,6,17.3,10.5a33.7,33.7,0,0,0,.2-5.5c.2-4.4.2-8.7.2-13.1.2-14.9.2-29.9.2-44.8s0-29.9-.2-44.9v-9.9a61.8,61.8,0,0,0-.3-8.6Z"/><path class="d" d="M1872.6,584.6c-1.4,1.5-2.6,3.4-4.1,4.8-3.3,3-6.9,6.3-10.8,9.2-1.4.9-7.5,4.7-10,4.7h-2.1a10.9,10.9,0,0,1-7.8-3c-.4,0-1.1,0-.4.7-4.3-3.4-4.9-7.2-5.9-10.4-.3-1,0-2.8,0-4.4s-.3-1.3-.3-1.8.2-1.4.3-2.2-.1-1.4,0-2.1a85.1,85.1,0,0,1,9.5-22.8v-.7c1.7-2.6,3.4-5.6,5.5-8.6-.4-.2-.5-.1-.9-.1,1.5-1.9,4-4.8,5-5.8s3.7-3,4.2-4.6,2.6-.9,3.8-1.3-.1-.5.6-.5-.1.2.5.2,0-.4.6-.4a7.1,7.1,0,0,1,2.8,1.1c.3-.3.1-.4.4-.7,3.8,1.5,8.9,5,8.9,8.8a8.3,8.3,0,0,1-2,5.2c-.3.3-.7,1.8-1.4,1.8s-.1-.2-.5-.5l-2.1,3.2c-.2,0-.4-.4-.9-.4s-.3.3-.3.6-.5-.2-.8-.5-.8.4-.8,1.1a1.6,1.6,0,0,1-.5-1.3c0-1.8.9-2.7,2.1-4.9a33.4,33.4,0,0,0,1.7-5.7,1.7,1.7,0,0,0-1.4-1.8,9.2,9.2,0,0,0-2.5,1c-3.4,1.1-4.9,3.8-7.9,7.1-.7.8-1.1,2.2-1.9,3.4s-1.4,1.9-2.1,3.2-.1.8-.5,1.1-1,1.1-1.3,1.6c-1.7,3.1-5.3,10.2-7.1,13.9a45.2,45.2,0,0,0-2.3,6.4c-.3.7-.1,1.9-.4,2.6a9.9,9.9,0,0,0-.6,2.6c-.3,2.1-.8,6.9-.8,7.3,0,3.4.4,5.5,4.1,5.5h1.9c.6,0,.4-.5.8-.6,2.8-1.4,5.8-1.9,8.2-4.4h.4c.5,0,1.3-1.3,2-1.7v-.2c0-.1,0-.1-.1-.1s-1,.4-1.3.7c1.5-1,3-2.7,4.5-3.8s3.2-2.7,4.3-4.1h-.7a6.9,6.9,0,0,0-2,.7c-.7.3-2,.3-2.8.6a65.3,65.3,0,0,1-6.3,2.5,26.4,26.4,0,0,1-3.5-2.1c-.3-.3-.5-.5-.5-.8s-.3-2.4-1-2.7.4-.9,1-1.4,4.1-2,4.8-2,.1.5.7.5,4.2-2.7,4.7-2.7,0,.3.7.3a6.5,6.5,0,0,0,3-1.3,32.3,32.3,0,0,1,4.2-.9c.6,0,.5.2,1.1.2a20.2,20.2,0,0,1,5.8.7,17.3,17.3,0,0,0,2,1.4,6.1,6.1,0,0,1,2.3,3.3A42,42,0,0,1,1872.6,584.6Zm-23.7-39.5-.2-.2-.6.5.2.3Zm.4-.8h-.3l-.2.6h.3Zm7.8,44.7-.2-.2-.8.6.2.3Zm1.5-1.3-.2-.3-1.2.9.2.3Z"/><path class="d" d="M1902.5,576.5a11.9,11.9,0,0,0-3.8,0c-.1-.6-.2-1.4-.4-2.6-3.7,1.3-6.7,5.6-9,9.2,0-.3,0-.5-.3-.5s-.4.9-.2,1.1h-.3l-.2.3c-.1.3.2.4.2.8s-.2.2-.6.2h-.1c-.2,0-.3,0-.3.1s.4.6.4.7a27,27,0,0,1-2.2,3.3c0,.4.3.6.2.7a7,7,0,0,1-1.6,1.9c-.4.6-.3,1.5-.7,2.3-1.2,2.4-2.4,5.4-1.5,8a3.7,3.7,0,0,1-1.8.5,12.7,12.7,0,0,1-2.5-1c-.4-.4,0-1.5-1-1.3-.6-1.9-1.6-3.2-1.6-4.7s1.5-5.5,1.7-8a69.2,69.2,0,0,0,1.7-10.3c.3-2.1.6-4.8.9-7.4s.4-3.8.8-5.5h1.1a4.9,4.9,0,0,1,3.3,2.6,13.7,13.7,0,0,1,.9,4c.1,1-.3,1.8-.3,3.1.9-2.2,6-6.1,8.9-6.1a12.9,12.9,0,0,1,8.7,4.1c.4.5.5,1.3,1,2S1902.2,575.7,1902.5,576.5Z"/><path class="d" d="M1939.5,593.9c-.4.4-.6.8-.3,1.3a29.5,29.5,0,0,1-3.5,3s.5.6.7.6c-1.9.3-5,3.1-5.8,3.1h-3.8c-3.7,0-7.1-7.6-7.1-8.2a27,27,0,0,0-.3-4.6c-1,1.7-2,3-3.1,4.8s-5.6,8.3-8.3,8.3l-1.9.3c-3,0-4-1.9-5.8-3.3,0-.8-.7-2.3-.7-2.8,0-5.5,7.4-18,10.5-22.1a19.8,19.8,0,0,1,3.6-3.4,17.9,17.9,0,0,0,2.6-2.3c.3-.3,0-.6.2-.8s1.5-.2,1.9-.6a2.2,2.2,0,0,0,1.1-1.2h.8a2.8,2.8,0,0,0,1.5.8l1.5.2c1.1-1.2.3-1.9,1.5-1.9s.2.8.8.8.1-.3.6-.3a7.7,7.7,0,0,1,4,1.8c.2.5.7,1.7.3,2.1s.3-.4.3.4-1.9,6.6-2.6,10.1-2,13.9-2,14.4.2,2,.2,2.8,2,0,2.8,0,11.4-4.8,12-5.1S1939.8,593.2,1939.5,593.9Zm-20.8-17c-.3-.4,0-.8,0-1a72.6,72.6,0,0,0-8,12.8l.6.6c2.9-3.5,5.3-8.6,8-13Z"/><path class="d" d="M1954.7,601.2a8.9,8.9,0,0,1-2.3.1h0c-.4-.4-.5-.2-1.1-.2h-.8a65.7,65.7,0,0,1-3.7-6.1,2.7,2.7,0,0,1,1.6-1.8c0-.5-.2-.7-.7-.7s.6.4,1,.4,1.9-1.7,3-2.5a23.1,23.1,0,0,0,7.9-13.6c-1.7-.3-3.8.7-6.2,2.8s-3.3,4.8-3.9,4.8.1-.2-.2-.5-1.8,2.3-2.2,3.6-3.1,10.1-4.1,14.8c-.3,1.4-1.2,3.7-1.6,5.2-1.2,3.6-1.6,7.4-2.4,11.1a7,7,0,0,1-1.5,3.3h-.6c-.6,0,.2-.5-.5-.5s-.4.5-1.1.5-1-.8-1.5-.9a1.6,1.6,0,0,1,0-.7,18.1,18.1,0,0,0-2.4-2.4c.3-.5.6-1.2.9-1.8s-.3-1.8-.2-3.3.3-.6.6-1,0-1.7.4-2.7,1.2-3.8,2.3-4.2c1.6-6.6,3.2-14.7,4.8-22.3.2-.7-.2-1.4-.1-2.3a41.7,41.7,0,0,1,1.8-5.7,3.3,3.3,0,0,0,0-2.4c1.8-5.3,3.8-11.7,5.2-17.1.2-.3.1-.8-.3-1.4s.2.3.9.3.5-.8,1.1-.8,1.8,1.5,3.2,2.5,1.1,5.1,1.1,5.9-1.6,7.5-2.7,11.3l.4.3h.8a21.7,21.7,0,0,0-2,2.6v.2c0,.1.1.1.2.2,1.1-1.9,6.4-7.1,8.9-7.1.8,0,3.2.7,4.8,1s1.5,1.3,2,1.7c2.8,1.4,3.3,4.5,3.3,6.6C1968.8,585.7,1961.8,597.2,1954.7,601.2Z"/><path class="d" d="M2006.1,594.4v.2c0,.1.1.1.2.2s1.5-.4,2.3-.7c-.8.3-.9,1.7-1.6,2.3s-1.3.6-1.7,1.3-.3,1.2-.6,1.6-1.2,1.4-2.6,2.4l.5.4c-.7.3-2.4,1.6-3.1,1.6l-3.2-.3c-.5,0-3-1.9-3.5-2.2a10.3,10.3,0,0,0-1.1-2,20.1,20.1,0,0,0-1.4-2.5,21.1,21.1,0,0,1-1.1-5.9,23.1,23.1,0,0,1,.3-5.8l-.2-1.3c-2.7,1.7-4.9,4.4-6.9,8.2a31.6,31.6,0,0,1-6.6,8.8h0c0,.1.1.1.3.1s0-.1-.6-.1a5.5,5.5,0,0,0-2.1,1,19.2,19.2,0,0,0-1.7-2.6c-.4-.7-.5-1.8-1.3-2.6s-.5-3.5-.5-4.2.3-3,.7-6.1a41,41,0,0,1,1.7-7.4c1.2-3.9,2.5-7.3,2.5-7.4s.7-1.8.7-2.5l.6-.7a42,42,0,0,1,2.6-8.3,1.4,1.4,0,0,0-.1-1.4c1.2-3.6,4-9.9,5.4-13.7s1.7-4.5,4.2-4.5c.7,0,1.6.7,2.4.7s.3.6.4.6a13.3,13.3,0,0,1,.9,4.8,12.2,12.2,0,0,1-.7,3.3l-12.8,34.8c.8,0,1.6-1.5,2.2-2.2s2.3-2,3-2.8,6.5-7.4,7.3-7.4.9.9,1.4,1,2.1-.1,2.9.4c3.3,2.3,3.7,4.5,3.7,7.1l-1.5,12.8a6.5,6.5,0,0,0,.5,2.5c1.1-.4.9,0,1.6,0s5.3-2.5,7-2.8a8.9,8.9,0,0,0,2.6-.9A11.7,11.7,0,0,1,2006.1,594.4Z"/><path class="d" d="M2040.2,571.1a30.9,30.9,0,0,1-2.7,5.9c-.4.8-.6,2.1-1,3.1a55.8,55.8,0,0,1-3.8,6.5c-1.5,1.9-3.6,4.5-5.9,7.6a21.5,21.5,0,0,1-3,2.6,23.5,23.5,0,0,1-4.6,4c-.4.1-.3.4-.5.7s.1-.3-.2-.6-.5,1.2-1.1,1.6a9.4,9.4,0,0,1-3.5,1.9l-1.5-.2-.5-.4h0a.2.2,0,0,1-.2.2c-.7,0-2-1.5-2.9-2.2s.1-.5,0-.6-1.9-3.2-1.9-4,1.1-2.2,1.1-2.9-1.1-1.3-1.4-2a5,5,0,0,1-.4-1.3,2.3,2.3,0,0,1,.1-1.8c0-.2-.5-.2-.5-.8s.2,0,.5-.3c.3-2.9,1.3-6.3,2.1-10.1.3-1.7,9.2-32.1,9.2-35.9,0-.3-.3-1.4-.4-2.3s-1-1-1-1.5.2-.7.5-.7a3.4,3.4,0,0,0,1.2.4,28.9,28.9,0,0,1,3.5,1c.1,0,.4.8.9.8a15.4,15.4,0,0,1,3,1.4c3.8,2.3,9.2,5.9,11.9,9.6a23,23,0,0,1,4.1,12.8A42.1,42.1,0,0,1,2040.2,571.1Zm-10.5-21.3.2-.2c-1.4-1.1-3.4-2.9-5.2-3.6.7,6.9-3.1,15.5-4.3,21.9s-2.8,9.3-4.2,14.3c-.7,1.6-2.1,4.1-2.1,5.5s-.3,0-.4.3a51.9,51.9,0,0,1-1.3,6.4c-.1-.1-.1-.3-.1-.6l-.7,1c0,.4.3.6.1.9a1.2,1.2,0,0,0-.9-.4,3.2,3.2,0,0,0,0,1.4l.9-.7c.3.2-.2.4.2.4s.2-.8.5-1.1-.2.2.4.2,6.9-6.3,7.1-6.5a17,17,0,0,0,2.1-3.1c2.1-1,4.4-5.5,5.6-7.4a18.4,18.4,0,0,0-2.7,3.3c2.2-3.7,4.8-7.3,6.5-11,1-2.2,2.8-7.3,2.8-10.9S2033.1,551.4,2029.7,549.8Z"/><path class="d" d="M2064.3,533.8a5,5,0,0,1,.3,3.5l-.6,3.1c-1.4,6.7-4.5,18.3-7,27.1-.4,2.3-1.7,5.2-2.7,8.1l.4.4a6.3,6.3,0,0,1,3.7-1.7c4.6-.4,10.2,2.8,10.6,7.8a27,27,0,0,1-.9,5.3c-.4,1.4-1.5,4.1-2.2,5.8s-5.2,9.1-6.3,9.4,0-.4-.8-.4-1.5,1.4-2.3,1.7h.2v-.3c-.7-.1-1.2-.5-1.9-.4s0,.2-.6.3-1-.5-1.4-.9-3-3.4-3-4.8a10.1,10.1,0,0,1,1.1-3.2c1.9,1,.4,2.3,2.1,2.3s4.1-5.3,4.8-7.3,2.2-6.2,3-8.4v-1.2c-.7,0-.9,1.3-1.7,1.8a5.6,5.6,0,0,0-2.8,3.2c-.4.1-.4-.1-.7-.1s-3.2,5.1-3.9,6.9.5.4.8-.1-1.7,2-2.4,2.1-2.4-.2-3.1-.1-4.2-6.1-4.1-6.1c-.3-1.7,2.5-10.4,2.5-10.8,3.6-12.1,8.6-29.4,11.8-40.3.7-1.8,1.1-4.5,2.2-6.5a6.6,6.6,0,0,1,2.4-.3c.6-.2,3.2,3.1,3.2,3.2S2064.6,533.4,2064.3,533.8Z"/><path class="e" d="M1620.4,422.9l.5,117.1.5,116.5.3,65.7c0,2.4,2.3,4.5,4.5,5.1s4.4-.4,4.4-2.8l-.5-117.1-.4-116.5-.3-65.7c0-2.4-2.3-4.5-4.5-5.1s-4.5.4-4.5,2.8Z"/><path class="e" d="M1628,727.3c42.6-.1,85.1,1.9,127.7,2.6s85.2,1.1,127.7,1,86.2-.6,129.3-1.2l127.5-2.3c42.1-.8,84.3-1.3,126.4-.2l15.2.5a7.4,7.4,0,0,0,6.2-3.3c1-1.7.3-3.3-1.9-3.4-41.9-1.6-83.9-1.3-125.8-.6L2033,722.7q-64.5,1-129.2,1.4t-127.9-.6c-42.5-.7-85-2.5-127.5-2.9-5.4,0-10.7-.1-16.1,0-2.3,0-5,1.2-6.1,3.2s-.4,3.5,1.8,3.5Z"/><path class="e" d="M2277.3,421.6q-1.4,57.3-1.2,114.6t1.5,113.6c.6,21.2,1.2,42.5,2,63.7.2,3.7,8.9,7.6,8.7,2.5-1.4-37.8-2.5-75.6-3-113.5s-.7-75.3-.4-113q.3-31.8,1-63.6a5.7,5.7,0,0,0-3.7-5.2c-1.1-.5-4.9-1.4-4.9.9Z"/><path class="e" d="M1626,426.9l253.7.3,252.3.2,142.4.2a3.2,3.2,0,0,0,3.4-4c-.6-2.4-3.5-3.7-5.8-3.7l-253.7-.2-252.3-.3-142.4-.2a3.2,3.2,0,0,0-3.4,4c.6,2.5,3.5,3.7,5.8,3.7Z"/><path class="c" d="M1733,789.2c-9.7-8.6-22.9-13.3-35-17.2a234.7,234.7,0,0,0-44.4-9.7,107.1,107.1,0,0,0-20.4-.6c-.5,0-.5,21.4-.5,18.6-.1,14.9-.2,29.9-.1,44.8,0,4.6.2,63.4.6,63.4q62-1.8,123.8-2.6,64.8-.9,129.4-.9t129.4.8q63,.8,126,2.3c20.7.6,41.4.9,62.1,2.1s42.8,3.9,63.3,10.4c5.1,1.6,10,3.5,14.9,5.5V779.4c-38,11.9-78.1,12.3-117.5,10s-78.6-6.1-118-7.9c-78.7-3.7-158.6-2-235.5,16.6-20.4,4.9-40.8,10.6-60.2,18.7-17.7,7.4-34.5,17.4-47.3,32a34.1,34.1,0,0,0-.2,5.5c-.2,4.4-.2,8.7-.2,13.1-.2,14.9-.2,29.9-.2,44.8s0,29.9.2,44.9V967a61.3,61.3,0,0,0,.3,8.6c4.5,10.7,15.6,15.3,26.3,17.4s23.9,3,35.7,3.9c26,1.9,52.2,2.8,78.3,2.8a1243.4,1243.4,0,0,0,165.9-10.6,838.9,838.9,0,0,0,84.6-15.6c.7-.1.5-21.2.5-18.5.1-15,.2-29.9.1-44.9s0-29.8-.1-44.8l-.2-9.9a63.3,63.3,0,0,0-.3-8.7c-33-9.7-66.8-16.4-100.9-21.1a944.1,944.1,0,0,0-220.3-3.9c-33.7,3.4-67.9,8.4-100.7,17.3-13.8,3.7-29.3,9.6-37.4,22.3a31.8,31.8,0,0,0-4.3,10.4c-.4,2.2-.6,4.5-.8,6.8-1,18-.5,36.3-.5,54.4,0,22.4-.1,44.9.4,67.3a69.9,69.9,0,0,0,.7,10.2,37.1,37.1,0,0,0,3.6,10.3c7.5,14.2,22.2,24.3,36.7,30.4,18.5,7.8,38.4,12.3,58.3,15.2,40.4,5.9,81.9,5.8,122.7,4.3a993.6,993.6,0,0,0,122.9-12.5,976.7,976.7,0,0,0,120.7-27.7q29.7-8.9,58.8-19.5c9.5-3.4,19-6.9,28.3-10.8,3.7-1.6,7.3-3.5,9.8-6.7a11.5,11.5,0,0,0,2.1-4.3c.2-1.3.2-2.5.3-3.8.5-9.8.3-19.7.4-29.5.2-28.9.3-57.8-.2-86.7-.1-3.8.3-8.3-.8-12s-3-5.1-6.1-5.2c-.3,0-.6,58.6-.6,63.4,0,14.9,0,29.9.2,44.8V970q0,4.3.3,8.7c15.4,15.5,43.9,9.9,53.2-9.5a51.5,51.5,0,0,0,.2-5.5c.1-4.4.2-8.7.2-13.1.2-15,.2-29.9.2-44.8s0-29.9-.2-44.9V851c0-2.9-.1-5.8-.3-8.6-6.8,6-10.6,12.7-11,21.8-.8,15-.4,30-.5,45,0,25.1-.2,50.2.4,75.2a53.3,53.3,0,0,0,.8,9.8,34.4,34.4,0,0,0,3.8,9.8c7.8,13.8,21,23.8,32.1,34.9,3.8,3.9,9.4,9,10,14.8l-.2-2.2a.6.6,0,0,1,.1.4l-.4-29.1v.2l.4-93.1a.8.8,0,0,1-.1.4l.2-2.3c-.5,5.5-7.6,7.5-12,8.6a139.3,139.3,0,0,1-19.2,3c-15.9,1.8-31.9,2.6-47.9,3.1-20.8.8-41.7,1-62.5,1.1-24.4.1-48.9-.1-73.3-.4-26.6-.3-53.1-.8-79.6-1.3l-81.4-1.7-78.9-1.5c-23.9-.3-47.8-.7-71.7-.7-20.2-.1-40.5-.1-60.8.4-15,.4-30.1.9-45.1,2.3l-8.2.9c-.5.1-.5,21.4-.4,18.6-.2,14.9-.2,29.9-.2,44.8s0,29.9.2,44.9c0,1.8.4,18.5.4,18.5,16.8-2.1,33.8-2.7,50.7-3.1,24.6-.6,49.2-.7,73.7-.5,29.6.2,59.1.7,88.7,1.2l96.2,2c32.2.6,64.3,1.3,96.5,1.7,29.8.5,59.7.8,89.5.7,24.8-.1,49.5-.3,74.3-1.4,17.3-.7,34.8-1.6,52-4.4,5.7-.9,16.6-2.1,18.8-8.7a23.3,23.3,0,0,0,.4-3.7c.3-5.5.2-11.1.3-16.6q.3-30.7.1-61.7c0-15.3.7-30.8-.5-46a28.9,28.9,0,0,0-.4-2.9c-.9-2.9-2.9-5.5-4.8-7.8-12-14.2-28.8-24.6-37.6-41.4a30.3,30.3,0,0,1-3.7-11.7l.2,2.3c-.2-2.1-.1-5,.1,4.8l.2,86.7c-.8,28.1-.9,37.2-.3,27.5l-.2,2.3c.6-7.6,5.2-13.8,10.8-18.7V842.4c-9.3,19.4-37.8,25-53.2,9.5V978.7c4.2.2,6.2,4,6.5,7.7V861.2c-.9,8.3-10.3,11.4-16.9,14.1-9.7,3.8-19.3,7.4-29.1,10.9-19.3,6.9-38.7,13.3-58.4,19a994.3,994.3,0,0,1-120.8,27A965.7,965.7,0,0,1,1847,943.9c-40.5,1.4-81.9,1.4-122-5-19.3-3.1-39.3-7.6-57.1-15.9-14.2-6.6-28.7-17.1-35-31.9a38.7,38.7,0,0,1-2.7-10.5l.2,2.3c-.3-5.8-.3-1.2.2,13.6v104.2l-.2,2.3c2.4-30.7,40.4-37.3,64.4-42.4a773.6,773.6,0,0,1,94.5-13.6,934.6,934.6,0,0,1,201.3,5c35.1,4.7,70,11.5,104,21.5V846.7c-51.3,12.5-104,19.1-156.6,22.9a1204,1204,0,0,1-163.4,1.1c-13.4-.9-27.2-1.7-40.5-3.7s-25.2-6.1-30.3-18.2V975.6c23.6-26.9,59.9-38.1,93.4-47.2,37.8-10.2,76.6-16.1,115.7-19.2,79.2-6.1,158.2.4,237.3,6.1,44.1,3.1,89.4,4.3,132.1-9.2.8-.2.5-21.1.5-18.5.1-15,.2-29.9.1-44.8s0-29.9-.1-44.9l-.2-9.9a61.3,61.3,0,0,0-.3-8.6c-39.3-16.9-83.2-16.5-125.2-17.7s-83.4-2-125.1-2.5-86.2-.9-129.2-1-86.5.2-129.7.7q-62.4.8-124.8,2.4l-14.9.4V888.5c13-1.1,26.5,1.1,39.2,3.7,14.8,3,29.5,7.1,43.3,13.3,6.1,2.8,12.2,6,17.3,10.5a33.3,33.3,0,0,0,.2-5.5c.2-4.3.2-8.7.2-13.1.2-14.9.2-29.9.2-44.8s0-29.9-.2-44.8v-9.9a63.3,63.3,0,0,0-.3-8.7Z"/><path class="d" d="M1748.5,894.5l-.7,1.7c-.3,0-.5-.2-.8-.5l-.7.8h0c0-.1,0-.2.1-.2h0c0-.1,0-.1-.1-.2a4.2,4.2,0,0,0-1.5,1.1,2.2,2.2,0,0,0-.1-.9,12.8,12.8,0,0,1-2.2-2l-.2-.7c.1-.3,0-1.1.3-1.5h-.2c-.1,0-.2-.1-.2-.3a6.2,6.2,0,0,1,.1-1.9c.1-.1.3.1.4-.2l.3-.4c-.1-.3.1.1.1-.5s-1.1-5.7-2.3-6.6a8.6,8.6,0,0,0-3.2-1.9c-.6,0,.1.2-.5.2s-.6-.4-.9-.5h-1c-.9,0-5,2.9-5.2,3.4a10.7,10.7,0,0,0-1.8,4.1,3.7,3.7,0,0,0-.4,1.8,18.1,18.1,0,0,0,.4,4.2c0,.4.7,1.1.8,1.9s.1,3.3,1.2,4.8l2,6.5c0,.3.4.7.7,1.1,1.4,4.2,2.2,7.1,4.3,12.5,1.2,2.2,2.4,9.1,2.4,12.4a28.7,28.7,0,0,1-.7,4.4c-.1.4.3.8,0,1.3a7.8,7.8,0,0,1-2.9,3.8,6.9,6.9,0,0,1-1.5,1.4h-.7a11.4,11.4,0,0,1-4.9,1.2h-2c-.7,0-4.1-1.5-4.7-1.5s.1.2-.5.2-1.3-1-1.5-1.4-3.1-1.6-4.5-3.2-3.6-4.4-3.9-6.2-.8-1.9-1.6-3,.6-.5.3-.8l-.5-.6c.3-.8-.1-2.3-.1-3.1s-.6-.6-.6-1.2.3-.5.3-.9.2.4.6.6a9.3,9.3,0,0,1,0-2.9c.1,0,.3.3.6.7a4.8,4.8,0,0,0-.4-3.1c.4,0-.1-.4.6-.4s.1.2.5.2.4-1.1.4-1.8-.4,1.1-.1,1.9.3.1.3.2,0,1.9,1,2a5.8,5.8,0,0,0,.5,2l.5-.5c0,2.5,1.2,6.5,2.2,7.5s1.4,2.7,2,2.7.1-.2.1-.5c.8,1.8,6.7,3.8,9.3,3.8h1.1l.4.3,1.9-.8a5.3,5.3,0,0,0,2.1-2.5,9.1,9.1,0,0,0,.1-2.3c0-.6-.1-.4-.1-.5a9.6,9.6,0,0,0,0-2.4,144.4,144.4,0,0,0-6.9-18.2c0-.5-5.1-15.5-5.1-19.8v-2a18.6,18.6,0,0,1,.5-3,24.8,24.8,0,0,1,2.7-6.3c0-.3-.2-.2-.2-.6s1.4-1.2,1.9-1.2-.2.4.2.4,2.4-2.1,3.2-2.1l5.7-.3c.4,0,3.4,1.2,4.6,1.5a9.5,9.5,0,0,0,3.2,1.5c4.1.4,6.1,10.7,6.1,14.2A21.5,21.5,0,0,1,1748.5,894.5Z"/><path class="d" d="M1780.4,912.3c0,.2.1.3.4.3s-1.2.7-.2,1.5l-3.1,1.4c0,.4.4.5.8.8s-2.9,2-4.7,2.3c-.3.7-1.4,2.1-2.1,2.1s.1-.2-.2-.4-.4.2-.4.8a55.8,55.8,0,0,0-6.3,2c-.3.1,0,.3,0,.5s0-.2-.7-.2a32.6,32.6,0,0,0-4.2,1.5l-.7,1.1a11.6,11.6,0,0,0-2.7,1.4c-.7,3-1.7,8.8-1.7,9.4s.9,4.1.9,4.6-1.1,1.2-1.1,2l-1.4.2c-.7,0-.7-1.1-1.1-1.4-2.8-2.6-2.4-4.8-2.7-7.1s.3-4.9.2-9.4c0-.6-2.5-3.6-2.5-4.2s.4-2.2.4-3.6l.5-.6c.4-.1.6-.4,1.1-.4s.1.3.8.3,1.2-.8,1.3-1.4c1-2.7,2.1-11.3,3.1-15.2s2.3-8.1,3.4-12.2c.5-1.9,1.2-4.4,2-6.7s.8-4.8,2.6-6a2.4,2.4,0,0,1,1.5-.6c.7,0,1.4,1.4,2,1.4h.7v.5c0,.8,1.8,3.5,1.8,4.3a13.9,13.9,0,0,1-1.1,3.9,4.4,4.4,0,0,1,.3,1.5c-1.9,6.2-3.8,12.2-5.6,17.9-.4,2.5-1.1,5.4-1.8,8v.5a3.5,3.5,0,0,0,1.8.2,5,5,0,0,1,1.9-.3c.7,0,.1.4.8.4s1.5-.4,2.3-.5c4.1-.7,8.7-1.1,14.4-1.6C1781.1,911.7,1780.7,911.9,1780.4,912.3Z"/><path class="d" d="M1798.7,917.5a15.8,15.8,0,0,0-3.8,0c-.1-.6-.2-1.4-.5-2.6-3.6,1.4-6.6,5.6-8.9,9.2,0-.3-.1-.5-.3-.5s-.4.9-.2,1.1h-.3l-.3.4c0,.2.3.3.3.7s-.3.2-.6.2h-.1c-.2,0-.3.1-.3.2s.4.5.4.6a38.1,38.1,0,0,1-2.2,3.4c0,.3.3.5.2.6a5.8,5.8,0,0,1-1.6,1.9c-.4.6-.3,1.6-.7,2.3-1.2,2.4-2.4,5.4-1.5,8a3.7,3.7,0,0,1-1.8.5,12.7,12.7,0,0,1-2.5-1c-.4-.3,0-1.5-1-1.2-.7-2-1.6-3.3-1.6-4.8s1.5-5.5,1.7-8a67.1,67.1,0,0,0,1.7-10.3c.3-2,.6-4.8.9-7.4s.4-3.7.8-5.5h1.1a4.9,4.9,0,0,1,3.3,2.6,13.7,13.7,0,0,1,.9,4c.1,1-.3,1.8-.3,3.2.9-2.3,5.9-6.1,8.9-6.1a12.5,12.5,0,0,1,8.7,4.1c.4.4.5,1.2,1,2S1798.4,916.7,1798.7,917.5Z"/><path class="d" d="M1818.5,936.4c0,.5.3.8,1,1a6.9,6.9,0,0,0-1,2.1c-1.6-.3-2.4,1.7-2.4,3.1a10.1,10.1,0,0,1-3.6.6c-.4.2,0,.3.4.3s-2.4,1-3.4,1v.3c0,.1,0,.2-.3.2s-3.7-1.8-4,0l-1-1.4c-2.7-.6-3.4-1.2-5.7-3.7s-.8.8-2.5-6.5a15.9,15.9,0,0,1,.7-7,48.9,48.9,0,0,1,3.1-8.1,55.3,55.3,0,0,1,3-5.7,31.4,31.4,0,0,0,2.4-3.3c1.3-1.2,1.5-2.1,3.3-3.2s2.8-.9,2.5-1.9h-.2c0,.2.1.3.4.3s-.2-.3.5-.3,1.8.9,2.6,1.1,0,1.8.6,1.8,0-.3.6-.3.8.4,1.1.8c0,3.8,1.9,1.8,1.9,4.2a53,53,0,0,1-1.8,7.4,45.2,45.2,0,0,1-4.2,6.1c-2.6,3.1-7.8,8.3-7.8,9.1s1.7,1.9,2.8,2.3a5.8,5.8,0,0,0,2.6.3c1,0,1.7-.9,3.2-.3l6.5-2a1.4,1.4,0,0,0,.9.4C1819.7,935.5,1819.3,936.2,1818.5,936.4Zm-12.6-15.8a26.5,26.5,0,0,0-1.8,3.6l-.6,2.4a64,64,0,0,0,4-5.1c1.3-1.8,3.5-4.4,4-8.1C1809,914.8,1808.2,916.6,1805.9,920.6Z"/><path class="d" d="M1858.1,934.9c-.4.5-.6.8-.4,1.3a21.7,21.7,0,0,1-3.4,3c0,.1.4.6.7.6-1.9.3-5,3.1-5.8,3.1h-3.8c-3.8,0-7.1-7.5-7.1-8.2a27,27,0,0,0-.3-4.6c-1,1.7-2,3-3.1,4.8s-5.6,8.3-8.4,8.3l-1.9.3c-3,0-4-1.9-5.7-3.3-.1-.8-.7-2.3-.7-2.8,0-5.5,7.3-18,10.4-22.1a24.9,24.9,0,0,1,3.7-3.4,17.9,17.9,0,0,0,2.6-2.3c.3-.3-.1-.5.2-.8s1.5-.2,1.9-.5a3.5,3.5,0,0,0,1.1-1.3h.7c.7.5,1.1.8,1.6.8l1.4.2c1.1-1.2.4-1.8,1.6-1.8s.2.7.8.7.1-.3.5-.3a7.3,7.3,0,0,1,4,1.8c.3.5.8,1.8.4,2.1s.3-.3.3.4-1.9,6.6-2.7,10.1-2,13.9-2,14.4.3,2,.3,2.9a7.8,7.8,0,0,0,2.7-.1c1.4,0,11.5-4.8,12-5S1858.4,934.3,1858.1,934.9Zm-20.8-17c-.4-.4,0-.7,0-1a72.6,72.6,0,0,0-8,12.8l.5.7c2.9-3.6,5.4-8.7,8-13.1Z"/><path class="d" d="M1910.5,937.4a.7.7,0,0,0,.4,1,3.6,3.6,0,0,1-1.1,1,1.3,1.3,0,0,1-.1.9,24.1,24.1,0,0,1-3.7,1.6c-.6,0-2.4-.8-3.1-.8s.4.3-.2.4-3-1.8-4.2-3-2.2-5.6-2.9-9a6.1,6.1,0,0,0-.6-3c-.7.9-1,1.7-1.7,2.7s-4.2,4.8-6,7.4-2.4,3.3-4.1,4.3.1.5-.3.6a8.2,8.2,0,0,1-3.2,1.5c-1.9.3-6.6-2.8-6.9-4.5-.4-4.1,1.9-11.1,2.1-13.8.3-.4-.2-.4-.2-.7l.3-.4a2.4,2.4,0,0,1-.3-1c-3,3-6.2,7.7-9.1,11.4a5.5,5.5,0,0,1-.5,1.3l-2,2.3v.8c-1.2,1-2.2,3-3.3,4.1a6,6,0,0,1-2.6,1.4c-.5.1-2-1-2.7-1.7s-1.1-2.1-1.2-3.5c-.4-2.9,1.1-8.2,2.5-12.8s3-8.6,3.3-10.1.9-2.8,1.2-4.2a1.1,1.1,0,0,0,.4-.5c0-2.7.5-4,2-7.6a20.9,20.9,0,0,1,2.1-.5,2.4,2.4,0,0,1,1.7.4c.1.3.2.4.2.5s2.3,2.7,2.3,3.2a16.7,16.7,0,0,1-.3,3,24.3,24.3,0,0,1-1,3.9c-.2,1.8-2.3,5.9-2.1,7.4s.2-.5,1-.6,6.1-7.5,8.7-11.4a9.4,9.4,0,0,1,3.4,0c1,.3,3.5,1.2,4.7,2.6a17.8,17.8,0,0,1,1.4,3.6c0,.7-1,6.7-1.2,9.9-1,.3-.9,1.9-1,2.9h0a.4.4,0,0,0,.1.3c.6-.6.5-1.1,1.6-1.1l11.8-14.4a17.2,17.2,0,0,1,2,.1c.5.1,1.3.9,1.7,1.2s.8-.1,1.1.3a6,6,0,0,1,1.6,1.4c.6.7.4,1.6,1.3,2.2s0,.6.1,1-1,5.9-1,8.5a21.9,21.9,0,0,0-.1,2.9,14.3,14.3,0,0,0,.1,2.5c.3,2.4.6,3.5,3.8,3.1a18,18,0,0,0,4.1-1.4C1911.3,935.9,1910.6,936.8,1910.5,937.4Zm-17.7-8.1h-.2l-.6.8.5.3Z"/><path class="d" d="M1950,901.2a.6.6,0,0,0,0,.6,29.1,29.1,0,0,1-8,12.7c-4.7,4.1-10.5,7.9-14.1,9.3-.6.3-1.8-.2-2.4-.2s-2.1.8-2.6.8-1-.1-1-.4v-.2a2.1,2.1,0,0,0-1.1,1.7c-.7,1.5-.9,4-1.6,6.2s-1.4,3.3-1.7,4.7-.1,3.9-1.6,6.7l-.9,1.1a3.1,3.1,0,0,1-1,.2c-.3,0-.8-.6-1.2-.6s-.6.4-1,.4,0-1.2-.7-1.2-.3.1-.5.1.2.1.2-.6-1-1.3-1.7-2.5-.1-.6-.1-1.2,2-4.5,2.3-5.9c1.5-5.5,3.2-11.2,4.6-16.6,2.2-9.6,4.8-19.5,7.2-29.1.3-1.1.3-3.1.6-4.9-2.9-1.1-3.9-5.1-3.7-7.4a3.4,3.4,0,0,1,1.5-.7,9.5,9.5,0,0,1,3.3-.5h2.3c.7,0,.1.2.4.3s3.8,1.3,5.4,2,1.4.4,1.8.7c9,5.8,16.1,13,16.1,20.7A33.8,33.8,0,0,1,1950,901.2Zm-18.6-19.7c-.3,0,.2-.2-.3-.2l-1.2.2v1.1c0,.7.8,3,.7,4.2-.4,2.9-.9,6-1.4,8.5-1,4.2-2.4,9.5-3.2,12.5s-1.6,5.3-1.7,7.4a10.1,10.1,0,0,0,3-.7c-.7-1.2,1-1.2,1.6-1.9a.8.8,0,0,1,.1.3h0c-.3.3.1.3.5.3l2.4-2h-.6c-.3-.3.1-.1.1-.4,6.5-3.1,12.6-12.6,12.6-19.1C1944,888.5,1935.2,881.5,1931.4,881.5Z"/><path class="d" d="M1974.2,917.5a15.8,15.8,0,0,0-3.8,0c-.1-.6-.2-1.4-.4-2.6-3.7,1.4-6.7,5.6-9,9.2,0-.3,0-.5-.3-.5s-.4.9-.2,1.1h-.3c-.2.3-.2.4-.2.4s.2.3.2.7-.2.2-.6.2h-.1c-.2,0-.3.1-.3.2s.4.5.4.6a38.1,38.1,0,0,1-2.2,3.4c0,.3.3.5.2.6a5.8,5.8,0,0,1-1.6,1.9c-.4.6-.3,1.6-.7,2.3-1.2,2.4-2.3,5.4-1.5,8a3.7,3.7,0,0,1-1.8.5,12.7,12.7,0,0,1-2.5-1c-.4-.3,0-1.5-1-1.2-.6-2-1.5-3.3-1.5-4.8s1.4-5.5,1.6-8a67.1,67.1,0,0,0,1.7-10.3c.3-2,.7-4.8.9-7.4s.4-3.7.8-5.5h1.1a4.7,4.7,0,0,1,3.3,2.6,13.7,13.7,0,0,1,.9,4c.1,1-.3,1.8-.3,3.2,1-2.3,6-6.1,8.9-6.1a12.5,12.5,0,0,1,8.7,4.1c.4.4.5,1.2,1,2S1973.9,916.7,1974.2,917.5Z"/><path class="d" d="M1986.6,940.9c-.4.3-.5,1-.7,1.4a11.7,11.7,0,0,1-5.7,1.9c-2.8,0-4.2-1.8-6.1-3.2s-1-2.7-2.1-2.7-.7-3.2-.7-3.7c0-4,3.6-11.5,4.4-12.8s.1-1.1.4-1.4a20.2,20.2,0,0,0,2.1-3.3c.4-.3.4-.2.8-.3s.1-.6.5-1.1,1.6-1.3,2.3-2.1.2-1.2.5-1.8-.8-.5-1.2.2,0-.5-.1-.6-.3.4-.3.8-.2-.7-.6-.7h.1l.4-.2c-.5-3.5,5.7-4.7,6.7-5.7.5,1,1.2.4,2.2.8l2.8,2.8c0,.1.1.2.2.3a2.1,2.1,0,0,0,.4.7c.2.1.6,0,.9.2,2.8,4,4.7,7.5,4.7,11.4C1998.5,928.4,1993.2,935.1,1986.6,940.9Zm3.3-25.5c-1,1.9-3.1,4.3-3.9,5.7-2,3.6-5.8,11-5.8,11.7v.8c1.2-.8,3.2-2.7,3.7-2.7s-.5.5.2.5,4.6-5.9,4.8-6.3a51.4,51.4,0,0,0,2.1-6.3A14.7,14.7,0,0,0,1989.9,915.4Zm-1-.7v-1.4h-.5v1.4Z"/><path class="d" d="M2029.1,928.6c-.7,0-.3-.3-.6,0s-.3.5.1.5.3-.1.7-.1-.9,1.4-.6,1.7-2.5,1.9-3.5,2.9.1.4.4.4v.9c-2.2,1.2-4.5,2.8-7.8,4.7-.4.4-.6,1.2-1.1,1.6s-5.7,2.2-7.7,2.2c-4.8,0-8.9-5-9.1-9,0-.8-.1-1.7-.1-2.3a33.5,33.5,0,0,1,.6-5.5,21.5,21.5,0,0,1,2-5.9c.3-.1.2-.7.3-1.2a22.5,22.5,0,0,1,2.9-5,9.5,9.5,0,0,0,2.1-2.4.4.4,0,0,0-.1-.3l-.4.5c1.1-1.4,2.4-4,3.9-5.5s1.3-.5,2.1-.9.8-1,1.5-1a13.6,13.6,0,0,1,3.8.9,10.9,10.9,0,0,1,3.6,3.5,13.9,13.9,0,0,1,.9,3.5c0,.9-1,6.3-2,6.8a2.6,2.6,0,0,1-1.4.3c-1.4,0-2.2-1.1-2.5-2.5s-1.2-1.8-.9-2.8h-.2a65.9,65.9,0,0,0-7.6,12.4,59.8,59.8,0,0,0-2.4,7.8V936a7.8,7.8,0,0,0,2.6.6,26.9,26.9,0,0,0,4-1.6c3.3-1.4,7.5-2.7,11.7-4.9a64.4,64.4,0,0,1,6.2-3.3C2030.1,927.3,2029.8,928.6,2029.1,928.6Z"/><path class="d" d="M2049,936.4c0,.5.3.8,1,1a6.9,6.9,0,0,0-1,2.1c-1.6-.3-2.4,1.7-2.4,3.1a9.9,9.9,0,0,1-3.5.6c-.5.2,0,.3.3.3s-2.3,1-3.3,1v.3c0,.1-.1.2-.4.2s-3.7-1.8-4,0l-1-1.4c-2.6-.6-3.4-1.2-5.6-3.7s-.9.8-2.6-6.5a17.6,17.6,0,0,1,.7-7,60,60,0,0,1,3.1-8.1c.8-1.4,1.7-3.5,3-5.7a21.6,21.6,0,0,0,2.4-3.3c1.4-1.2,1.6-2.1,3.4-3.2s2.7-.9,2.4-1.9h-.2c0,.2.1.3.4.3s-.2-.3.6-.3,1.7.9,2.5,1.1,0,1.8.6,1.8,0-.3.7-.3.7.4,1.1.8c0,3.8,1.8,1.8,1.8,4.2a66.4,66.4,0,0,1-1.7,7.4c-.8,1.4-2.7,4.1-4.2,6.1s-7.8,8.3-7.8,9.1,1.6,1.9,2.7,2.3a5.8,5.8,0,0,0,2.6.3c1,0,1.7-.9,3.2-.3l6.5-2a1.4,1.4,0,0,0,1,.4C2050.3,935.5,2049.8,936.2,2049,936.4Zm-12.6-15.8a26.5,26.5,0,0,0-1.8,3.6l-.5,2.4c1.3-1.7,2.7-3.3,3.9-5.1s3.5-4.4,4-8.1C2039.5,914.8,2038.7,916.6,2036.4,920.6Z"/><path class="d" d="M2077.5,908a13.9,13.9,0,0,1-.7,6.7,3.1,3.1,0,0,1-1.9.6,5.4,5.4,0,0,1-2.7-1.4c-.5.2-.7.4-.8.8-.8,6.8,0,13.9-1.2,20.8-.5,3.4-1.5,12-6.8,12-.8,0-.6-.3-1-.4s0,.1-.7.1-3.8-2.6-4.2-2.6c-2.9-1.7-7-8.7-7-12.4a13.3,13.3,0,0,1,1.9-5.6l.8-.2c.1.5-.3,1.2-.4,1.9s.5.2.8.6.1.6.1,1.5.8.2,0,1a2.4,2.4,0,0,1,.4,1.7c.3.7,1.3,1.4.9,2.4l.3.4a1.2,1.2,0,0,1,1-.5c1,1.7,1,4,2.9,5.2a8.4,8.4,0,0,0,2.2-3.9c2.2-5.2,1.8-14.5,1.8-18.6,0-1.4.6-3.1.6-4.6s-.3-1-.3-1.4a29.8,29.8,0,0,1,.6-4.2c0-1.1.3-9.2,2.5-9.2s.7.1,1,.4a7.2,7.2,0,0,1,4.8,1.3,24.5,24.5,0,0,1,4,2.9v1a4.2,4.2,0,0,1,1.5,2.6A1.2,1.2,0,0,1,2077.5,908Zm-21.3,27.2h-.4v-1.4h.4Z"/><path class="d" d="M2101,908a13.9,13.9,0,0,1-.7,6.7,3.1,3.1,0,0,1-1.9.6,6,6,0,0,1-2.8-1.4,1.1,1.1,0,0,0-.7.8c-.8,6.8-.1,13.9-1.3,20.8-.4,3.4-1.4,12-6.8,12-.7,0-.5-.3-.9-.4s0,.1-.7.1-3.8-2.6-4.2-2.6c-2.9-1.7-7-8.7-7-12.4a13.3,13.3,0,0,1,1.9-5.6l.7-.2a7.4,7.4,0,0,1-.3,1.9c.2.3.4.2.8.6s.1.6.1,1.5.8.2,0,1a2.8,2.8,0,0,1,.3,1.7c.4.7,1.4,1.4.9,2.4l.4.4a1.1,1.1,0,0,1,1-.5c1,1.7,1,4,2.8,5.2a8.6,8.6,0,0,0,2.3-3.9c2.2-5.2,1.7-14.5,1.7-18.6,0-1.4.7-3.1.7-4.6s-.3-1-.3-1.4.3-2.3.5-4.2.3-9.2,2.6-9.2c.7,0,.6.1,1,.4a6.9,6.9,0,0,1,4.7,1.3,20.8,20.8,0,0,1,4,2.9,3.8,3.8,0,0,1,.1,1,4.7,4.7,0,0,1,1.5,2.6A1.2,1.2,0,0,1,2101,908Zm-21.4,27.2h-.3v-1.4h.3Z"/><path class="d" d="M2121.1,933.5c.3.1.6,0,.9.4a2.8,2.8,0,0,1-1.1,1.3,2.2,2.2,0,0,0-.3,1.5,20.6,20.6,0,0,0-4.7,4.2c0,.3.2.9-.5,1.3a11.2,11.2,0,0,1-3.7,1.2c-6.1.4-9.2-7.2-9.5-11.2a27.6,27.6,0,0,1,.6-6l1-3.8a40.4,40.4,0,0,1,3-9.6,7.8,7.8,0,0,1,.1-1.3c.4-.2.5-1,1.1-1.6a16,16,0,0,0,2.1-.5,5.2,5.2,0,0,1,3.6,1.5,4.6,4.6,0,0,1,2.2,3.3c0,.4-.3,1-.4,1.7a27.2,27.2,0,0,0-.9,4.9,13.2,13.2,0,0,1-1.4,4.7,22.5,22.5,0,0,0-.8,3.3c-1.1,3.7-1.9,4.9-1.3,7.1a40.9,40.9,0,0,0,11.5-8.3C2121.5,928.6,2123.1,931.8,2121.1,933.5Zm-4.1-32.6a7,7,0,0,1-3.6-1.2c-.1-.3,0-.4-.3-.6s-2.2-3-2.6-4.6-.1-2.3-.6-3.1c4.1.3,4.6-.7,6.8-1s1.5,1.3,1.8,1.9-.2,1.8.9,2.8C2117.8,897.3,2121.4,900.6,2117,900.9Z"/><path class="d" d="M2159.6,933.9c-.3.3.1.7.1.8l-.9.8.8.2h-.1c-.2.2-.3.3-.4.2s-.1,1.1-.7,1.5,0,1,.3,1.5-1.1.8-1.2,1.5-2.1,1.5-2.8,2.3-1.4,1.6-1.7,2a32.1,32.1,0,0,1-3.6-.2c-1,0-5.3-2.2-5.6-3.1a29.2,29.2,0,0,1-3-8.4,61,61,0,0,1-.5-8c-.3-.1.1-.4-.2-.5-2.5,2.8-5.4,7-7.9,10-.1.1-.1.3,0,.7a29.2,29.2,0,0,1-2.9,4.6c-.8,1.1-2.8,3.1-3.3,3.2s-1.1-.9-1.5-.8.1.2-.6.2c-2.3.3-2.6-4.2-3-4.6a2.7,2.7,0,0,1-.9-1.6c0-.5.7-3.5.8-5.3a16.9,16.9,0,0,0,1.2-2.8c.4-1.4.3-3,.6-4.4,1.8-5,4.3-12.3,6.8-18.7,0-.4-.1-1.2-.1-1.9a8.4,8.4,0,0,1,2.5-2l1.7,2a2.2,2.2,0,0,0,.2-1.6,7.3,7.3,0,0,0,2.3,1.3c0,.4-.4,1.1,0,1.5h.6v1c.1.6-.4,1.2-.7,2s-.4,4-.8,5.8a1.6,1.6,0,0,1-.6,1.2,11.6,11.6,0,0,0-.5,4c1.4-1.3,3.5-5,5.4-5.8s1.8-.1,2.9-.7a4.5,4.5,0,0,1,1.1,1.4,2.4,2.4,0,0,1,1.2-.7c.5,0,1.7,1.2,2.4,1.8h0c0,.1-.1.2-.2.3s.5.4.6.4c2.2,4.2,1.6,2.6,1.9,5.1.3.6-.5,7.9-.2,11.6-.3,1.5.1,3.2.2,5a1.6,1.6,0,0,0,1.2.2c1.5,0,4.7-2.6,6.2-3.2h-.1c-.1,0-.2.1-.1.2v.2h.3c.7-.1,2-1.5,3.4-2.2A4.7,4.7,0,0,0,2159.6,933.9Zm-14.5-20.3v-.4h-.6v.4Z"/><path class="d" d="M2189.5,921.3c-3.2,15.2-4,21.2-6.5,30.3-.7,3.2-1.3,7.9-2.7,11.6s-3,7.4-4,11c-.1.6-.8,1-1.1,1.4s-1.2,3.6-2.2,4.7a30.6,30.6,0,0,1-3.4,3.9,5.3,5.3,0,0,1-2.6,1.6c-.6,0-1.2.3-1.8.3a16,16,0,0,1-3.2-.4c-.3-.1-.1-.1-.3-.5a12.8,12.8,0,0,1-3.3-1.7c-.7-.5-2-1.9-3.1-2.9s-.3-1-.7-1.6-3.9-5.6-3.9-7.2l-.3-7.6c0-.3.8-2.7,1.1-3.9l.4.6c.1-.4.8-1.2.1-1.6,1.1-1.2,2.1-3.6,3.3-5.1a11.4,11.4,0,0,1,2.2-2.2c-.8.7-.8,1.6-1.6,2.8h.4c.3,0,.4-.3.7-.9s.5,0,.5.6-2,3.5-2.3,4.9h0c0,.1,0,.2.1.2a1.6,1.6,0,0,0,.6-1.2,16.3,16.3,0,0,1-.7,2.6l-.5-.4v.2c-.1.3,0,.6.5.7s-.4.5-.5.8-.5,4-.4,4.6a38.9,38.9,0,0,0,.7,4.1c0,.6,3.9,9.1,5.4,9.1s.4.1,1.1.1a4.5,4.5,0,0,0,2.2-.6c.8-.1,1.6-2.1,2.4-3a20.2,20.2,0,0,0,4.6-7.9,7.3,7.3,0,0,1,.7-1.9c5.1-11.8,7.4-30,8.8-39.1-.3-.3.4-1.1.5-1.5v-.2a7.9,7.9,0,0,0-1.5,1.6,1.6,1.6,0,0,0,.4-1.3c-1.5,2-3.5,4.1-4.2,5.3s-.2,1.1-.2,1.4a38.5,38.5,0,0,1-6,6.8,26.5,26.5,0,0,1-3.3,3.5c0,.3.2.5.2.8l-2.2.7a11.7,11.7,0,0,1-3.7-1.2,10.9,10.9,0,0,0-1.1-1.3.7.7,0,0,0-.1-.5c-1.3-1.5-1-2.2-1.3-3.7,0-4.6,3.7-11.7,6-14.9,6.8-9.8,10-17.6,17.9-18,.4,0,1.4,1.8,2.1,2.4a1.6,1.6,0,0,0,.2,1.6c1.6,1,3.1,1.4,4.5,2.2s1.9,1.9,2,3.5S2189.9,919.1,2189.5,921.3Zm-9.7-5.8c-.3,0-.2.4-.6.7s-.4-.4-.7-.3v-1.1l-.4.5a2.2,2.2,0,0,1-.1-1.6,23.9,23.9,0,0,0-3.3,4.8,36.4,36.4,0,0,1-2.8,3.9c-1.9,3.6-4,8.4-5.5,11.8,2.5-2.6,5.3-5.8,7-7.9.4-.4,6.5-8.4,6.5-10Zm-3.1,15.5-1,1v-.2l.9-1Zm2.4-2.9-1.9,2.4-.3-.2,1.9-2.2Zm.7-1.7c.7-.4,1.4-.6,1.3-1.6Z"/><path class="e" d="M1620.4,763.9l.5,117.1.5,116.5.3,65.7c0,2.4,2.3,4.6,4.5,5.1s4.4-.4,4.4-2.8l-.5-117.1-.4-116.4-.3-65.7c0-2.5-2.3-4.6-4.5-5.2s-4.5.4-4.5,2.8Z"/><path class="e" d="M1628,1068.3c42.6-.1,85.1,1.9,127.7,2.7s85.2,1,127.7.9,86.2-.6,129.3-1.2l127.5-2.3c42.1-.8,84.3-1.3,126.4-.2l15.2.5a7.5,7.5,0,0,0,6.2-3.2c1-1.8.3-3.4-1.9-3.5-41.9-1.6-83.9-1.3-125.8-.6l-127.3,2.3q-64.5,1-129.2,1.4c-42.6.2-85.3.1-127.9-.6s-85-2.5-127.5-2.9h-16.1a7.3,7.3,0,0,0-6.1,3.3c-1.1,1.7-.4,3.4,1.8,3.4Z"/><path class="e" d="M2277.3,762.7q-1.4,57.3-1.2,114.6c.1,37.8.6,75.7,1.5,113.5.6,21.3,1.2,42.5,2,63.7.2,3.7,8.9,7.7,8.7,2.5-1.4-37.8-2.5-75.6-3-113.4s-.7-75.4-.4-113.1q.3-31.8,1-63.6a5.7,5.7,0,0,0-3.7-5.2c-1.1-.5-4.9-1.4-4.9,1Z"/><path class="e" d="M1626,767.9l253.7.3,252.3.3h142.4a3.2,3.2,0,0,0,3.4-4c-.6-2.4-3.5-3.6-5.8-3.6l-253.7-.3-252.3-.3-142.4-.2a3.3,3.3,0,0,0-3.4,4.1c.6,2.4,3.5,3.6,5.8,3.6Z"/><path class="c" d="M238.8,107.2c-9.7-8.6-22.9-13.3-35-17.2a225.6,225.6,0,0,0-44.4-9.7,99.5,99.5,0,0,0-20.4-.6c-.5,0-.5,21.4-.4,18.5-.2,15-.2,29.9-.2,44.9,0,4.6.2,63.4.6,63.3q62-1.8,123.8-2.6c43.2-.6,86.3-.8,129.4-.9s86.3.3,129.5.8,83.9,1.3,125.9,2.4c20.7.5,41.5.8,62.1,2.1s42.9,3.8,63.3,10.3a157,157,0,0,1,14.9,5.6V97.3c-38,12-78.1,12.4-117.5,10.1s-78.6-6.1-118-8c-78.7-3.7-158.6-2-235.5,16.6-20.4,4.9-40.8,10.7-60.2,18.7-17.7,7.5-34.5,17.5-47.3,32.1a49.6,49.6,0,0,0-.2,5.5c-.1,4.3-.2,8.7-.2,13.1-.2,14.9-.2,29.8-.2,44.8s0,29.9.2,44.8v9.9q0,4.4.3,8.7c4.6,10.7,15.6,15.2,26.3,17.4s23.9,2.9,35.7,3.8c26.1,2,52.2,2.8,78.3,2.9A1227,1227,0,0,0,515.6,307a801.9,801.9,0,0,0,84.6-15.5c.7-.2.5-21.3.5-18.6.1-14.9.2-29.9.2-44.8s-.1-29.9-.2-44.8l-.2-9.9a63.3,63.3,0,0,0-.3-8.7c-33-9.7-66.8-16.4-100.9-21.1a902,902,0,0,0-110.1-8.4A921.4,921.4,0,0,0,279,139.7c-33.7,3.4-67.9,8.3-100.7,17.2-13.8,3.8-29.3,9.7-37.4,22.3a32.7,32.7,0,0,0-4.3,10.4,52.3,52.3,0,0,0-.7,6.8c-1.1,18.1-.5,36.4-.6,54.5,0,22.4-.1,44.8.4,67.2a59.6,59.6,0,0,0,.8,10.3,35.1,35.1,0,0,0,3.6,10.3c7.4,14.2,22.1,24.3,36.6,30.4,18.5,7.7,38.5,12.3,58.3,15.2,40.4,5.9,82,5.7,122.7,4.2a972.7,972.7,0,0,0,122.9-12.4,995.2,995.2,0,0,0,120.7-27.7q29.7-8.8,58.8-19.5c9.5-3.5,19.1-6.9,28.3-10.9,3.7-1.5,7.4-3.4,9.8-6.6a10.6,10.6,0,0,0,2.1-4.4,23.1,23.1,0,0,0,.3-3.7c.5-9.8.4-19.7.4-29.5.2-29,.4-57.9-.2-86.8-.1-3.7.3-8.3-.8-12s-3-5-6-5.2c-.4,0-.7,58.7-.7,63.4,0,15,0,29.9.2,44.9V288a82.5,82.5,0,0,0,.4,8.6c7.8,8,22.3,7.6,32.6,6.8,13.6-1.1,27.8-4.4,39.8-11.2,5-2.7,10.1-6.4,12.6-11.7a49.3,49.3,0,0,0,.3-5.5c.1-4.3.1-8.7.2-13.1.1-14.9.2-29.8.1-44.8s0-29.9-.1-44.8l-.2-9.9a63.3,63.3,0,0,0-.3-8.7c-5.8,5.2-10.8,11.5-12.7,19.1s-1.4,18.3-1.5,26.6c-.4,33.5-.5,67.1.1,100.6a108.6,108.6,0,0,0,.7,12.8c1.8,13.2,9.2,24.8,15.3,36.4,2.6,5.1,5.5,10.6,6,16.5l-.2-2.2a3.1,3.1,0,0,1,.1,1l-.4-44.3v.3l.2-71.5c.3-5.9.3-7.7.2-5.4v-2.3c-.7,7.5-7.9,11-14.4,12.8s-13.7,2.7-20.6,3.5c-15.9,1.7-31.8,2.5-47.7,3.1-20.9.7-41.8,1-62.7,1.1-24.5.1-48.9-.1-73.4-.4-26.5-.3-53-.8-79.5-1.3l-81.4-1.7-78.9-1.5c-24-.4-48.1-.7-72.1-.8-20.2-.1-40.5,0-60.7.5-15.1.4-30.2.9-45.2,2.3l-8.2.9c-.5.1-.4,21.4-.4,18.6-.2,14.9-.2,29.8-.2,44.8s0,29.9.2,44.8c0,1.8.4,18.6.4,18.6,15.8-2,31.8-2.6,47.7-3.1,22.7-.6,45.4-.7,68.1-.6,27.6.1,55.2.5,82.8,1l90.4,1.8c30.7.6,61.5,1.3,92.3,1.8,29,.5,58.1.9,87.1,1,25.4.1,50.9.1,76.3-.5,19.5-.5,39-1.2,58.4-3,6.9-.6,13.8-1.4,20.7-2.6s19.3-4,20.9-13.3c.6-3.4.4-7,.5-10.3.5-26.6.4-53.3.2-79.9,0-12.9.5-25.9-.5-38.8-.1-1.3-.2-2.5-.4-3.7a50.8,50.8,0,0,0-4.4-11.4c-4.5-9.1-10-17.8-13.5-27.3a54.2,54.2,0,0,1-3.4-14.3l.2,2.3c-.6-9.5.1-20.7.3,26.5v76.9q-.6,23.1-.3,14.7a3.4,3.4,0,0,0,.1-1l-.2,2.3c.9-10,6.4-18.1,13.7-24.6V153.7c-4.9,10.2-18.4,15.2-28.4,18.3-13,4-27.5,6.2-41,4.3-5.6-.8-11.6-2.4-15.6-6.5V296.6c4.1.2,6.1,4.1,6.4,7.8V179.1c-.9,8.3-10.2,11.5-16.9,14.1-9.6,3.8-19.3,7.5-29.1,11q-28.8,10.4-58.4,18.9a994.7,994.7,0,0,1-120.8,27.1,1003.9,1003.9,0,0,1-122.4,11.7c-40.5,1.3-81.9,1.3-122-5.1-19.3-3-39.3-7.6-57.1-15.9-14.2-6.5-28.7-17.1-35-31.8a35.1,35.1,0,0,1-2.6-10.6v2.3c-.3-5.7-.3-1.1.2,13.7V318.7l-.2,2.2c2.5-30.6,40.5-37.3,64.4-42.4A754.4,754.4,0,0,1,294.9,265a934.6,934.6,0,0,1,201.3,4.9,695.8,695.8,0,0,1,104,21.6V164.7c-51.3,12.5-104,19.1-156.6,22.9-54.3,3.9-109,4.6-163.3,1-13.5-.8-27.2-1.6-40.6-3.7-11.9-1.9-25.2-6.1-30.3-18.1V293.6c23.6-27,59.9-38.2,93.4-47.2,37.8-10.2,76.7-16.2,115.7-19.2,79.2-6.1,158.2.4,237.3,6,44.1,3.2,89.4,4.3,132.1-9.1.8-.2.5-21.1.5-18.6.1-14.9.2-29.9.2-44.8s-.1-29.9-.2-44.8l-.2-9.9a63.3,63.3,0,0,0-.3-8.7c-39.3-16.8-83.2-16.5-125.2-17.6s-83.4-2-125.1-2.6-86.2-.9-129.2-.9-86.5.1-129.7.6q-62.4.8-124.8,2.4l-14.9.5V206.4c13-1.1,26.5,1.1,39.2,3.7a204.9,204.9,0,0,1,43.3,13.4,69.2,69.2,0,0,1,17.3,10.4,48.9,48.9,0,0,0,.3-5.4c.1-4.4.1-8.7.2-13.1.1-15,.2-29.9.1-44.8s0-29.9-.1-44.9l-.2-9.9a61.3,61.3,0,0,0-.3-8.6Z"/><path class="d" d="M419.7,204.9h-12c-.5,0-1.1.6-1.5.6s-3,.2-4,.4a37.2,37.2,0,0,1-6,1l-.5.5c-2.1-.4-3.6.3-5.8.6v.2c0,.1-.1.1-.2.1s-1.9.4-2.9.4a1.9,1.9,0,0,0-1.3,1,48,48,0,0,0-2.4,7.6c-1.1,3-1.9,6-3.2,9l.3.4a3.6,3.6,0,0,1,1.3-.5c.6,0,.4.2.6.5l.7-.7.3.2h.2c.8,0,15.4-3.4,16.1-3.4s.2.1.6.1l6.1-1.3-.5.3a1.6,1.6,0,0,1,.6,1.4c0,.6-.4.6-.7,1.3s.4.4.4.8-2.4,1.1-3.5,1.4-1,.9-.2.9a3.8,3.8,0,0,0-2.1.6c.2.3.5.1.9.1l-13.5,5.4c-1.2,0-3.4,1-4.9,1.6a26.4,26.4,0,0,1-4.5.6c-.7,0,.1-.2-.5-.2s-1.7,5.4-2,7.1-1.3,8.1-1.3,8.8.2.5.2.8a3.3,3.3,0,0,0,1,2.9c.5.1.6.3,1.2.3s.3-.5.9-.5.9.7,1.4.7l1.8-.2,2.4-.8a33.4,33.4,0,0,0,5-2.2c1.4-.8,2.7-2.5,4-2.5s.3.5.7.5-.6,1.2.5,2.1a15.3,15.3,0,0,1-1.3,2.1c0,.3.3.3.7.3a16,16,0,0,0-2.6,2.7,2.5,2.5,0,0,1-1,1.4,24.2,24.2,0,0,1-6.5,3h-3.5c-.6,0-.4-.2-.8-.3a8.2,8.2,0,0,1-4.7-2.1,13.8,13.8,0,0,1-6-7.1,30.3,30.3,0,0,1-1.1-5.9v-6.1c.3-.2.4-.4.4-.5,1.1-7.1,3.2-10,2-12.5a1,1,0,0,0,1.1-.7c1.6-4.3,3.2-9.2,4.8-13.9.2-.7,1.2-2.2,1.2-2.8s-1.3-1.5-2-1.7-1.1-1.3-1.4-2.3-.8-2.4-1.2-3.7V202h.1c.1-.2.3-.2.5-.2s-.1.2.3.2.5-.3.7-.4c2.3-.7,4.9-1.4,7.7-2,2.4-3.5.8-3.6,3.8-3.6.5,0,.7.3,1.1.6s1.2,1.2,2,1.9h.5c.6,0,4-.8,6-.8,5-.2,14.3.1,15,.1a47.6,47.6,0,0,1,7.1,1.7,12.4,12.4,0,0,1,4.4,1.9c1,.7.4,1.5,1.1,2.3A5.8,5.8,0,0,1,419.7,204.9Z"/><path class="d" d="M438.8,223.2c0,.1.1.1.2.1h.3c0,.4-.4.6-.5,1l1.1.5c-1,1-2.5,2.5-2.2,3.7a37.4,37.4,0,0,1-2.5,2.9c.2.3.5.3.6.1-1.4,2.3-3.5,5.8-4.7,7.3-2.2,3.5-6,10.1-7.5,12.5-1,.8-2.9,5.3-3.4,7.3a16.1,16.1,0,0,0-1.8,4.2,2.7,2.7,0,0,1-1.1.6l-1.1.2c-3.2.4-6.7-6-7-7.3s-.6-10.6-1-15.7a72.2,72.2,0,0,0-1-10.6c-.1-.3-.8-1.1-.8-1.8l-.2-1.6h1.2c.7-.3.4.2,1,.1s-.1-.1.4-.1,3.5,1.6,4.4,2.8,1.1,3,1.8,4.7.7,5.8,1.9,10.9A102.2,102.2,0,0,1,427,231.3c1.2-.9,4.8-5.3,6.8-6.2.4-.3.5-.7.9-1.2s3.1-1.8,3.5-1.9.7-.2,1.7.1Zm-2.1,7.6-.5.7-.3-.3.5-.5Z"/><path class="d" d="M457.5,254.4c0,.5.4.7,1,.9s-.6,1.4-1,2.2-2.3,1.6-2.3,3.1a13,13,0,0,1-3.6.5c-.4.3,0,.4.4.4s-2.4.9-3.4,1v.3h-.3c-1.1,0-3.8-1.8-4,0l-1-1.3c-2.7-.7-3.4-1.3-5.7-3.7s-.8.8-2.5-6.5a14.5,14.5,0,0,1,.7-7,45.8,45.8,0,0,1,3.1-8.1,46.6,46.6,0,0,1,3-5.7,38.6,38.6,0,0,0,2.4-3.4c1.3-1.2,1.5-2.1,3.3-3.2s2.8-.9,2.5-1.9-.2.1-.2.2.1.3.4.3-.2-.3.5-.3a21.7,21.7,0,0,1,2.6,1.1c.2.8,0,1.7.6,1.7s0-.3.6-.3.8.5,1.1.9c0,3.8,1.8,1.8,1.8,4.1a61.7,61.7,0,0,1-1.7,7.4,35.4,35.4,0,0,1-4.2,6.1c-2.6,3.2-7.8,8.4-7.8,9.2s1.6,1.8,2.7,2.3a8.2,8.2,0,0,0,2.7.2c1,0,1.7-.9,3.2-.2,2.4-.8,4.7-1.6,6.5-2l.9.3C458.8,253.5,458.4,254.1,457.5,254.4ZM445,238.6c-1.1,2-1.7,3.2-1.8,3.5l-.6,2.5c1.4-1.8,2.7-3.4,3.9-5.1s3.6-4.5,4-8.1C448.1,232.8,447.3,234.6,445,238.6Z"/><path class="d" d="M498.5,251.9c-.2.2.2.7.1.8l-.8.8.7.2h0c-.2.1-.3.2-.4.1s-.1,1.1-.7,1.6,0,1,.3,1.4-1.2.9-1.2,1.6-2.1,1.4-2.9,2.3-1.3,1.5-1.6,2a32.1,32.1,0,0,1-3.6-.2c-1,0-5.3-2.2-5.6-3.1a28.7,28.7,0,0,1-3-8.5,59.9,59.9,0,0,1-.5-8c-.3-.1.1-.3-.2-.4-2.5,2.8-5.4,7-7.9,10q-.1.2,0,.6a33.1,33.1,0,0,1-2.9,4.7A21.3,21.3,0,0,1,465,261c-.6,0-1.1-.9-1.6-.8s.1.3-.5.3c-2.3.3-2.6-4.3-3-4.6a2.5,2.5,0,0,1-.9-1.7c0-.4.7-3.4.8-5.3a16.9,16.9,0,0,0,1.2-2.8c.4-1.3.3-3,.6-4.3,1.8-5,4.3-12.3,6.8-18.8,0-.3-.1-1.2-.1-1.9a13.6,13.6,0,0,1,2.5-2l1.6,2c.4-.3.4-1.1.3-1.5a7.1,7.1,0,0,0,2.3,1.2c0,.5-.4,1.1,0,1.6h.1c.3,0,.2-.1.5-.2v1c.1.6-.4,1.3-.7,2.1s-.5,3.9-.8,5.7a1.8,1.8,0,0,1-.6,1.3,11.3,11.3,0,0,0-.5,4c1.3-1.4,3.5-5.1,5.4-5.8s1.8-.1,2.9-.7a4.2,4.2,0,0,1,1.1,1.3,2.3,2.3,0,0,1,1.2-.6c.5,0,1.7,1.2,2.4,1.8h0l-.2.3c0,.2.5.3.6.3,2.1,4.3,1.6,2.7,1.9,5.1.2.7-.5,7.9-.2,11.7-.3,1.4.1,3.1.2,5a1.9,1.9,0,0,0,1.1.1c1.6,0,4.8-2.5,6.3-3.1h-.3v.2h.3c.7-.1,2-1.4,3.4-2.2A5.3,5.3,0,0,0,498.5,251.9Zm-14.4-20.3v-.5h-.6v.5Z"/><path class="d" d="M529.5,230.2a.4.4,0,0,0,.4.4c-.2.8-1.2.6-.2,1.4l-3.1,1.5c0,.3.4.4.8.7s-2.8,2-4.7,2.4c-.3.6-1.4,2.1-2.1,2.1s.1-.2-.2-.5-.4.3-.4.8c-1.8.4-4.1,1.3-6.3,2-.2.1,0,.3,0,.6s0-.2-.7-.2a28.3,28.3,0,0,0-4.2,1.4l-.7,1.1a7.6,7.6,0,0,0-2.6,1.5,83.4,83.4,0,0,0-1.8,9.4c0,.6.9,4.1.9,4.5s-1.1,1.3-1.1,2.1l-1.4.2c-.6,0-.7-1.1-1.1-1.5-2.8-2.5-2.4-4.8-2.7-7.1s.3-4.9.2-9.3c0-.7-2.5-3.7-2.5-4.2s.5-2.3.5-3.7a1.5,1.5,0,0,0,.4-.6c.4-.1.6-.4,1.1-.4s.1.3.8.3a1.7,1.7,0,0,0,1.3-1.3c1-2.8,2.1-11.3,3.1-15.2s2.4-8.1,3.4-12.2c.5-1.9,1.2-4.5,2-6.7s.8-4.9,2.6-6.1a4.2,4.2,0,0,1,1.5-.6c.8,0,1.4,1.5,2,1.5h.8v.4c0,.8,1.7,3.6,1.7,4.4a14.3,14.3,0,0,1-1.1,3.8,5,5,0,0,1,.3,1.6c-1.8,6.1-3.8,12.1-5.6,17.9a69.1,69.1,0,0,1-1.8,8v.4c.6.4,1,.2,1.8.2a5,5,0,0,1,1.9-.3c.7,0,.1.5.9.5s1.4-.5,2.2-.6c4.1-.7,8.7-1,14.4-1.5C530.2,229.7,529.8,229.8,529.5,230.2Z"/><path class="d" d="M546.2,225.9a14.3,14.3,0,0,1-.7,6.8,3.9,3.9,0,0,1-1.9.6,5.5,5.5,0,0,1-2.8-1.5,1.3,1.3,0,0,0-.7.9c-.8,6.8-.1,13.9-1.3,20.8-.4,3.4-1.4,11.9-6.8,11.9-.7,0-.5-.3-.9-.4s0,.1-.7.1-3.8-2.5-4.2-2.5c-2.9-1.7-7-8.7-7-12.5a12.5,12.5,0,0,1,1.9-5.5l.7-.2a6.2,6.2,0,0,1-.3,1.8c.2.4.4.3.8.7s.1.6.1,1.4.8.3,0,1.1a2.5,2.5,0,0,1,.3,1.6c.4.8,1.4,1.5.9,2.5l.4.4a1.2,1.2,0,0,1,1-.6c1,1.7,1,4.1,2.8,5.3a10.3,10.3,0,0,0,2.3-3.9c2.2-5.2,1.7-14.6,1.7-18.7,0-1.3.7-3.1.7-4.5s-.3-1-.3-1.5.3-2.2.5-4.2.3-9.1,2.6-9.1c.7,0,.6,0,1,.3a7.1,7.1,0,0,1,4.7,1.4,20.8,20.8,0,0,1,4,2.9,3.4,3.4,0,0,1,.1,1,4.4,4.4,0,0,1,1.5,2.5C546.6,225.5,546.5,225.7,546.2,225.9Zm-21.4,27.2h-.3v-1.3h.3Z"/><path class="e" d="M125.8,83.2l.5,117,.5,116.5.2,65.7c0,5.1,9.9,4.9,9.9-.2l-.5-117.1-.5-116.5-.2-65.7c-.1-5-9.9-4.8-9.9.3Z"/><path class="e" d="M136.6,387.3c42.6-.2,85.1,1.8,127.7,2.6s85.2,1,127.7.9,86.1-.5,129.1-1.2,85-1.5,127.5-2.2,84.4-1.4,126.6-.2l15.2.5c6.2.2,3.7-8.5-1.2-8.7-41.9-1.6-83.8-1.3-125.7-.6s-84.8,1.6-127.2,2.3-86.3,1.2-129.5,1.4-85.3,0-127.9-.6-85-2.5-127.5-2.9c-5.3,0-10.7-.1-16.1,0s-3.6,8.7,1.3,8.7Z"/><path class="e" d="M782.7,81.8q-1.4,56.9-1.2,113.7c.1,37.9.6,75.7,1.5,113.6.6,21.2,1.2,42.4,2.1,63.7,0,2.3,2.6,4,4.7,4.4s4.8-.1,4.7-2.5c-1.4-37.8-2.4-75.7-3-113.5s-.7-75.8-.3-113.6c.1-21.3.5-42.6.9-63.9.1-4.2-9.3-6.8-9.4-1.9Z"/><path class="e" d="M132,86.2l253.6.3,252.4.3H780.4c2.3,0,3.6-2.2,3-4.4a6,6,0,0,0-5.7-3.9L524,78.3,271.6,78l-142.3-.2a3.3,3.3,0,0,0-3.1,4.4,6.2,6.2,0,0,0,5.8,4Z"/><path class="c" d="M238.8,614.3c-9.7-8.5-22.9-13.3-35-17.2a232.8,232.8,0,0,0-44.4-9.6,99.5,99.5,0,0,0-20.4-.7c-.5.1-.5,21.4-.4,18.6-.2,14.9-.2,29.9-.2,44.8,0,4.6.2,63.4.6,63.4q62-1.8,123.8-2.6,64.8-.9,129.4-.9t129.5.8q62.8.8,125.9,2.3c20.7.6,41.5.9,62.1,2.1s42.9,3.9,63.3,10.4a157,157,0,0,1,14.9,5.6V604.5c-38,11.9-78.1,12.3-117.5,10.1s-78.6-6.2-118-8c-78.7-3.7-158.6-2-235.5,16.6-20.4,4.9-40.8,10.6-60.2,18.7-17.7,7.4-34.5,17.4-47.3,32.1a48.7,48.7,0,0,0-.2,5.4c-.1,4.4-.2,8.8-.2,13.1-.2,15-.2,29.9-.2,44.9s0,29.8.2,44.8v9.9c0,2.9.1,5.8.3,8.6,4.6,10.7,15.6,15.3,26.3,17.5s23.9,2.9,35.7,3.8q39.2,2.8,78.3,2.8a1226.9,1226.9,0,0,0,165.9-10.6,828.4,828.4,0,0,0,84.6-15.5c.7-.2.5-21.3.5-18.6.1-15,.2-29.9.2-44.8s-.1-29.9-.2-44.9l-.2-9.9a61.3,61.3,0,0,0-.3-8.6c-33-9.8-66.8-16.5-100.9-21.2a922.3,922.3,0,0,0-110.1-8.3A921.4,921.4,0,0,0,279,646.8c-33.7,3.5-67.9,8.4-100.7,17.3-13.8,3.8-29.3,9.6-37.4,22.3a32.7,32.7,0,0,0-4.3,10.4,50.5,50.5,0,0,0-.7,6.8c-1.1,18.1-.5,36.3-.6,54.4,0,22.5-.1,44.9.4,67.3a58.4,58.4,0,0,0,.8,10.2,34.1,34.1,0,0,0,3.6,10.3c7.4,14.2,22.1,24.4,36.6,30.4,18.5,7.8,38.5,12.3,58.3,15.2,40.4,5.9,82,5.8,122.7,4.3a991.5,991.5,0,0,0,122.9-12.4,995.5,995.5,0,0,0,120.7-27.8q29.7-8.7,58.8-19.5c9.5-3.4,19.1-6.9,28.3-10.8,3.7-1.6,7.4-3.5,9.8-6.7a10.2,10.2,0,0,0,2.1-4.3,23.4,23.4,0,0,0,.3-3.8c.5-9.8.4-19.7.4-29.5.2-28.9.4-57.8-.2-86.7-.1-3.8.3-8.3-.8-12s-3-5.1-6-5.2c-.4,0-.7,58.7-.7,63.4,0,14.9,0,29.9.2,44.8v9.9a84.4,84.4,0,0,0,.4,8.7c15.3,15.5,43.8,10,53.1-9.5a50.6,50.6,0,0,0,.2-5.5c.2-4.4.2-8.7.2-13.1.2-14.9.2-29.9.2-44.8s0-29.9-.2-44.9v-9.9a82.4,82.4,0,0,0-.3-8.6c-6.8,6-10.6,12.7-11,21.8-.8,15-.4,30.1-.5,45.1,0,25-.2,50.1.4,75.1a53.3,53.3,0,0,0,.8,9.8,34.4,34.4,0,0,0,3.8,9.8c7.8,13.8,21,23.8,32.1,34.9,3.8,3.9,9.4,9,10,14.8V877l-.4-29.1v.2l.4-93.1v-1.9c-.5,5.5-7.6,7.6-12,8.7a156.4,156.4,0,0,1-19.2,3c-15.9,1.7-31.9,2.5-47.9,3-20.8.8-41.6,1-62.5,1.1-24.4.1-48.9-.1-73.3-.4q-39.9-.4-79.6-1.3l-81.4-1.6q-39.4-.9-78.9-1.5-35.8-.6-71.7-.8c-20.2-.1-40.5,0-60.7.5-15.1.3-30.2.8-45.2,2.2l-8.2,1c-.5,0-.4,21.3-.4,18.5-.2,15-.2,29.9-.2,44.8s0,29.9.2,44.9c0,1.8.4,18.5.4,18.5,16.8-2.1,33.8-2.6,50.7-3.1,24.6-.6,49.2-.6,73.8-.5,29.5.2,59,.7,88.6,1.2l96.2,2c32.2.7,64.3,1.3,96.5,1.8,29.8.4,59.7.7,89.5.6,24.8,0,49.6-.3,74.3-1.4,17.4-.7,34.9-1.6,52-4.4,5.7-.9,16.6-2.1,18.8-8.7a15.3,15.3,0,0,0,.4-3.6c.3-5.6.2-11.1.3-16.7.2-20.5.2-41.1.2-61.7-.1-15.2.6-30.8-.6-46a14.5,14.5,0,0,0-.4-2.9,22.7,22.7,0,0,0-4.8-7.7c-11.9-14.3-28.8-24.7-37.6-41.5a32,32,0,0,1-3.7-11.7l.2,2.3c-.2-2.1-.1-5,.1,4.8l.2,86.7q-1.2,42.1-.3,27.6l-.2,2.2c.6-7.6,5.2-13.8,10.8-18.7V667.5c-9.3,19.5-37.8,25-53.1,9.5V803.8c4.1.2,6.1,4,6.4,7.8V686.3c-.9,8.3-10.2,11.4-16.9,14.1-9.6,3.8-19.3,7.4-29.1,10.9q-28.8,10.5-58.4,19a975.8,975.8,0,0,1-120.8,27A965.7,965.7,0,0,1,352.8,769c-40.5,1.4-81.9,1.4-122-5-19.3-3.1-39.3-7.6-57.1-15.9-14.2-6.5-28.7-17.1-35-31.9a34.4,34.4,0,0,1-2.6-10.5V708c-.3-5.7-.3-1.2.2,13.6V825.8l-.2,2.3c2.5-30.7,40.5-37.3,64.4-42.4a754.4,754.4,0,0,1,94.5-13.5,934.6,934.6,0,0,1,201.3,4.9c35.1,4.7,70,11.5,104,21.6V671.9c-51.3,12.4-104,19.1-156.6,22.8a1202.7,1202.7,0,0,1-163.3,1.1c-13.5-.9-27.2-1.6-40.6-3.7-11.9-1.9-25.2-6.1-30.3-18.1V800.7c23.6-26.9,59.9-38.1,93.4-47.1,37.8-10.3,76.7-16.2,115.7-19.2,79.2-6.2,158.2.3,237.3,6,44.1,3.1,89.4,4.3,132.1-9.1.8-.3.5-21.2.5-18.6.1-14.9.2-29.9.2-44.8s-.1-29.9-.2-44.9l-.2-9.9a61.3,61.3,0,0,0-.3-8.6c-39.3-16.9-83.2-16.5-125.2-17.7s-83.4-1.9-125.1-2.5-86.2-.9-129.2-1-86.5.2-129.7.7q-62.4.8-124.8,2.4l-14.9.4V713.6c13-1.1,26.5,1.1,39.2,3.7,14.8,3,29.5,7.1,43.3,13.3,6.1,2.8,12.2,6,17.3,10.5a48.9,48.9,0,0,0,.3-5.4c.1-4.4.1-8.8.2-13.2.1-14.9.2-29.8.1-44.8s0-29.9-.1-44.8l-.2-9.9a63.3,63.3,0,0,0-.3-8.7Z"/><path class="d" d="M387.3,737.3a30.2,30.2,0,0,1-2.7,5.8c-.4.8-.5,2.1-1,3.2a43.3,43.3,0,0,1-3.8,6.4c-1.5,2-3.6,4.5-5.8,7.7-.7.7-1.9,1.5-3,2.5s-3.6,3.6-4.7,4-.2.5-.5.8.2-.4-.2-.7-.5,1.2-1.1,1.7a9.8,9.8,0,0,1-3.4,1.9l-1.6-.2-.5-.5h0c0,.1,0,.2-.2.2s-2-1.5-2.8-2.2,0-.4,0-.5a12.3,12.3,0,0,1-2-4c0-.4,1.1-2.3,1.1-2.9s-1.1-1.4-1.3-2a3.2,3.2,0,0,1-.5-1.3,2.3,2.3,0,0,1,.1-1.8c0-.3-.4-.2-.4-.8s.1,0,.4-.3c.3-2.9,1.3-6.4,2.1-10.1.4-1.7,9.2-32.2,9.2-35.9,0-.4-.3-1.5-.4-2.3s-1-1.1-1-1.6.2-.7.6-.7a1.8,1.8,0,0,0,1.2.5,19.2,19.2,0,0,1,3.4,1c.1,0,.5.7.9.7a10.5,10.5,0,0,1,3,1.5c3.8,2.2,9.2,5.9,11.9,9.5a23.2,23.2,0,0,1,4.1,12.8C388.4,730.2,388.1,735.2,387.3,737.3Zm-10.4-21.4.2-.2c-1.5-1.1-3.5-2.9-5.3-3.5.7,6.8-3.1,15.4-4.3,21.8s-2.8,9.4-4.2,14.4c-.7,1.5-2.1,4.1-2.1,5.4s-.2,0-.3.3c-.4,2.1-.8,4.3-1.4,6.5-.1-.1-.1-.3-.1-.7l-.7,1c0,.4.3.7.1.9l-.8-.3a1.8,1.8,0,0,0,0,1.3c.4-.2.6-.6.9-.7s-.3.5.1.5.2-.9.5-1.1-.2.2.5.2,6.8-6.3,7.1-6.6a18,18,0,0,0,2-3.1c2.1-1,4.4-5.4,5.6-7.4a31.7,31.7,0,0,0-2.6,3.3c2.1-3.7,4.7-7.3,6.4-11,1-2.2,2.8-7.3,2.8-10.9S380.2,717.5,376.9,715.9Z"/><path class="d" d="M401.7,766c-.4.3-.5,1-.7,1.4a10.7,10.7,0,0,1-5.7,1.9c-2.8,0-4.2-1.7-6.1-3.2s-1-2.7-2.1-2.7-.7-3.2-.7-3.7c0-4,3.6-11.5,4.4-12.8s.1-1.1.4-1.4a20.2,20.2,0,0,0,2.1-3.3c.4-.3.4-.2.8-.3s.1-.6.5-1.1,1.6-1.2,2.3-2.1.2-1.1.5-1.8-.8-.4-1.2.2,0-.5-.1-.5-.3.3-.3.7-.2-.7-.6-.7h.1l.4-.3c-.5-3.5,5.7-4.7,6.7-5.7.5,1,1.2.4,2.2.9a32.9,32.9,0,0,1,2.8,2.7l.2.4.4.6c.2.1.6,0,.9.3,2.8,3.9,4.7,7.4,4.7,11.3C413.6,753.5,408.3,760.2,401.7,766Zm3.3-25.4c-1,1.9-3.1,4.2-3.9,5.6-2,3.6-5.8,11-5.8,11.7v.8c1.2-.8,3.2-2.7,3.7-2.7s-.5.6.2.6,4.6-5.9,4.8-6.4a51.4,51.4,0,0,0,2.1-6.3A14.1,14.1,0,0,0,405,740.6Zm-1-.8v-1.3h-.5v1.3Z"/><path class="d" d="M471.5,762.6a.7.7,0,0,0,.5.9,11.4,11.4,0,0,1-1.1,1.1.8.8,0,0,1-.2.8,23.8,23.8,0,0,1-3.6,1.6c-.6,0-2.5-.8-3.1-.8s.4.4-.3.5a20,20,0,0,1-4.2-3c-1.9-2.1-2.1-5.7-2.9-9a6.8,6.8,0,0,0-.5-3,29.4,29.4,0,0,0-1.7,2.6c-1,1.4-4.2,4.8-6,7.4s-2.4,3.3-4.1,4.3.1.6-.3.7a10.3,10.3,0,0,1-3.2,1.4c-1.9.3-6.6-2.8-6.9-4.4-.5-4.2,1.9-11.1,2.1-13.9.3-.4-.2-.4-.2-.7l.3-.4c-.1-.3-.4-.5-.4-1-2.9,3-6.2,7.7-9.1,11.4-.1.3-.2.8-.4,1.3l-2,2.3v.8c-1.2,1.1-2.2,3.1-3.3,4.2a7.9,7.9,0,0,1-2.6,1.3c-.5.1-2-1-2.8-1.7s-1.1-2.1-1.2-3.5,1.1-8.1,2.6-12.8,3-8.6,3.3-10.1.9-2.8,1.1-4.2.4-.1.5-.5c0-2.6.5-4,2-7.6.6,0,1.5-.5,2.1-.5a1.8,1.8,0,0,1,1.6.5l.3.4c1.4.3,2.3,2.7,2.3,3.2a11.7,11.7,0,0,1-.4,3,25.3,25.3,0,0,1-.9,3.9c-.3,1.8-2.4,5.9-2.2,7.5.1,0,.3-.6,1-.7s6.1-7.5,8.7-11.3a6.7,6.7,0,0,1,3.5,0,9.2,9.2,0,0,1,4.6,2.5,13.4,13.4,0,0,1,1.4,3.6c0,.7-.9,6.7-1.2,10-1,.2-.9,1.8-1,2.9h0v.2c.7-.6.6-1.1,1.7-1.1l11.8-14.3c.2.1,1.2-.2,2,.1s1.2.9,1.6,1.1.8-.1,1.2.3a6,6,0,0,1,1.5,1.4c.7.7.5,1.6,1.3,2.2s.1.6.2,1-1,6-1,8.5a21.9,21.9,0,0,0-.1,2.9,14.3,14.3,0,0,0,.1,2.5c.3,2.4.5,3.5,3.7,3.2a19.8,19.8,0,0,0,4.2-1.5C472.4,761,471.6,761.9,471.5,762.6Zm-17.6-8.2h-.3l-.5.8.4.3Z"/><path class="d" d="M509.9,760c-.4.5-.6.8-.3,1.3a29.5,29.5,0,0,1-3.5,3c0,.1.5.6.7.6-1.9.3-5,3.1-5.8,3.1h-3.8c-3.7,0-7.1-7.5-7.1-8.2a27,27,0,0,0-.3-4.6c-1,1.7-2,3-3.1,4.8s-5.6,8.3-8.3,8.3c-.5,0-1.5.4-1.9.4-3,0-4-2-5.8-3.4-.1-.7-.7-2.3-.7-2.7,0-5.6,7.4-18,10.5-22.1a17.2,17.2,0,0,1,3.6-3.5,13.4,13.4,0,0,0,2.6-2.3c.3-.2-.1-.5.2-.8s1.5-.2,1.9-.5a3.5,3.5,0,0,0,1.1-1.3h.7c.7.5,1.1.8,1.6.8l1.4.2c1.1-1.2.4-1.8,1.6-1.8s.2.7.8.7.1-.3.6-.3a7.4,7.4,0,0,1,4,1.9c.2.4.7,1.7.3,2s.3-.3.3.4-1.9,6.6-2.6,10.1-2,13.9-2,14.5.2,2,.2,2.8a8.6,8.6,0,0,0,2.8-.1c1.3,0,11.4-4.7,12-5S510.2,759.4,509.9,760Zm-20.8-17c-.4-.4,0-.7,0-1a76.4,76.4,0,0,0-8,12.8l.5.7c2.9-3.6,5.4-8.7,8-13Z"/><path class="d" d="M524,758.7a1.1,1.1,0,0,1,.9.3,2.8,2.8,0,0,1-1.1,1.3,2.4,2.4,0,0,0-.2,1.5,24.1,24.1,0,0,0-4.8,4.2c0,.3.2.9-.5,1.3a11.2,11.2,0,0,1-3.7,1.2c-6,.4-9.2-7.2-9.5-11.2a27.6,27.6,0,0,1,.6-6l1-3.8a55,55,0,0,1,3-9.6,7.8,7.8,0,0,1,.1-1.3c.4-.2.5-1,1.1-1.6s1.4-.4,2.1-.4a5,5,0,0,1,3.6,1.4,4.6,4.6,0,0,1,2.2,3.3c0,.4-.3,1-.4,1.7a27.2,27.2,0,0,0-.9,4.9,13.8,13.8,0,0,1-1.4,4.8c-.4.8-.5,2.4-.8,3.2-1.1,3.8-1.9,4.9-1.3,7.1a41.4,41.4,0,0,0,11.6-8.3C524.4,753.7,526,756.9,524,758.7ZM519.9,726a7.4,7.4,0,0,1-3.6-1.2c-.1-.3,0-.3-.3-.6s-2.2-3-2.6-4.6-.1-2.2-.6-3.1c4.1.3,4.6-.7,6.8-1,.7.9,1.5,1.3,1.8,2s-.2,1.7.9,2.7C520.7,722.5,524.3,725.7,519.9,726Z"/><path class="d" d="M562.5,759c-.3.3.2.7.1.8a3.4,3.4,0,0,0-.8.9h.6c-.2.2-.3.3-.4.2s-.1,1.1-.7,1.6,0,1,.4,1.4-1.2.8-1.3,1.6-2.1,1.4-2.8,2.2-1.4,1.6-1.7,2a33.6,33.6,0,0,1-3.6-.2c-1,0-5.3-2.1-5.6-3a30.9,30.9,0,0,1-3-8.5,61,61,0,0,1-.5-8c-.3-.1.1-.4-.2-.5-2.4,2.9-5.3,7-7.9,10-.1.1-.1.3,0,.7a25.2,25.2,0,0,1-2.9,4.6c-.8,1.1-2.8,3.1-3.3,3.2s-1.1-.9-1.5-.8.1.3-.6.3-2.6-4.3-3-4.7a2.7,2.7,0,0,1-.9-1.6c0-.5.7-3.5.8-5.3a16.9,16.9,0,0,0,1.2-2.8c.4-1.4.3-3,.7-4.4,1.7-5,4.2-12.3,6.7-18.7,0-.4-.1-1.2-.1-1.9a13.6,13.6,0,0,1,2.5-2l1.7,2a2.9,2.9,0,0,0,.3-1.6,5.8,5.8,0,0,0,2.2,1.3c0,.5-.3,1.1,0,1.6h.1c.3,0,.2-.1.6-.2v1c0,.6-.5,1.2-.8,2.1s-.4,3.9-.8,5.7a2.5,2.5,0,0,1-.5,1.3,9.3,9.3,0,0,0-.6,4c1.4-1.4,3.6-5.1,5.4-5.9s1.8,0,2.9-.7a4.5,4.5,0,0,1,1.1,1.4,2.3,2.3,0,0,1,1.3-.7c.4,0,1.6,1.2,2.3,1.9h0l-.2.2c0,.3.5.4.6.4,2.2,4.3,1.6,2.6,1.9,5.1.3.6-.5,7.9-.2,11.6-.3,1.5.1,3.2.2,5a1.6,1.6,0,0,0,1.2.2c1.5,0,4.7-2.5,6.3-3.2h-.1c-.2,0-.3.1-.2.2v.2h.4c.6-.1,2-1.5,3.3-2.2A7,7,0,0,0,562.5,759ZM548,738.7v-.4h-.6v.4Z"/><path class="e" d="M125.8,590.3l.5,117.1.5,116.5.2,65.7c0,5.1,9.9,4.8,9.9-.3l-.5-117-.5-116.5-.2-65.7c-.1-5.1-9.9-4.9-9.9.2Z"/><path class="e" d="M136.6,894.4c42.6-.1,85.1,1.9,127.7,2.7s85.2,1,127.7.9,86.1-.6,129.1-1.2,85-1.5,127.5-2.3,84.4-1.3,126.6-.2l15.2.5c6.2.3,3.7-8.5-1.2-8.7-41.9-1.5-83.8-1.2-125.7-.6l-127.2,2.3c-43.2.7-86.3,1.3-129.5,1.4s-85.3.1-127.9-.6-85-2.4-127.5-2.8H135.3c-6.1,0-3.6,8.7,1.3,8.7Z"/><path class="e" d="M782.7,589q-1.4,56.8-1.2,113.7T783,816.3c.6,21.2,1.2,42.4,2.1,63.6,0,2.4,2.6,4.1,4.7,4.5s4.8-.1,4.7-2.6q-2.1-56.7-3-113.4t-.3-113.7c.1-21.3.5-42.5.9-63.8.1-4.3-9.3-6.8-9.4-1.9Z"/><path class="e" d="M132,593.4l253.6.2,252.4.3,142.4.2a3.3,3.3,0,0,0,3-4.4,6,6,0,0,0-5.7-4L524,585.4l-252.4-.2L129.3,585a3.3,3.3,0,0,0-3.1,4.4,6.2,6.2,0,0,0,5.8,4Z"/><path class="c" d="M238.8,1252.6c-9.7-8.5-22.9-13.3-35-17.1a225.6,225.6,0,0,0-44.4-9.7,107.1,107.1,0,0,0-20.4-.7c-.5.1-.5,21.5-.4,18.6-.2,15-.2,29.9-.2,44.8,0,4.7.2,63.4.6,63.4q62-1.8,123.8-2.6c43.2-.6,86.3-.8,129.4-.9s86.3.3,129.5.8,83.9,1.3,125.9,2.4c20.7.5,41.5.8,62.1,2.1s42.9,3.8,63.3,10.3a157,157,0,0,1,14.9,5.6V1242.8c-38,12-78.1,12.4-117.5,10.1s-78.6-6.2-118-8c-78.7-3.7-158.6-2-235.5,16.6-20.4,4.9-40.8,10.7-60.2,18.7-17.7,7.5-34.5,17.5-47.3,32.1a48.7,48.7,0,0,0-.2,5.4c-.1,4.4-.2,8.8-.2,13.1-.2,15-.2,29.9-.2,44.9s0,29.9.2,44.8v9.9q0,4.3.3,8.7c4.6,10.7,15.6,15.2,26.3,17.4s23.9,2.9,35.7,3.8q39.2,2.9,78.3,2.8a1226.9,1226.9,0,0,0,165.9-10.6,828.4,828.4,0,0,0,84.6-15.5c.7-.2.5-21.3.5-18.6.1-14.9.2-29.9.2-44.8s-.1-29.9-.2-44.8l-.2-10a62.4,62.4,0,0,0-.3-8.6A693.1,693.1,0,0,0,499.3,1289a922.3,922.3,0,0,0-110.1-8.3,901,901,0,0,0-110.2,4.5c-33.7,3.4-67.9,8.3-100.7,17.2-13.8,3.8-29.3,9.6-37.4,22.3a32.7,32.7,0,0,0-4.3,10.4,52.3,52.3,0,0,0-.7,6.8c-1.1,18.1-.5,36.4-.6,54.5,0,22.4-.1,44.8.4,67.2a57.7,57.7,0,0,0,.8,10.2,34.1,34.1,0,0,0,3.6,10.3c7.4,14.3,22.1,24.4,36.6,30.4,18.5,7.8,38.5,12.3,58.3,15.3,40.4,5.9,82,5.7,122.7,4.2a989.8,989.8,0,0,0,243.6-40.1q29.7-8.9,58.8-19.5c9.5-3.5,19.1-6.9,28.3-10.9,3.7-1.6,7.4-3.5,9.8-6.6a10.6,10.6,0,0,0,2.1-4.4,23.1,23.1,0,0,0,.3-3.7c.5-9.9.4-19.7.4-29.6.2-28.9.4-57.8-.2-86.7-.1-3.8.3-8.3-.8-12s-3-5-6-5.2c-.4,0-.7,58.7-.7,63.4,0,15,0,29.9.2,44.8v10a83.8,83.8,0,0,0,.4,8.6c15.3,15.5,43.8,10,53.1-9.5a49.6,49.6,0,0,0,.2-5.5c.2-4.3.2-8.7.2-13.1.2-14.9.2-29.9.2-44.8s0-29.9-.2-44.8v-9.9a84.3,84.3,0,0,0-.3-8.7c-6.8,6-10.6,12.7-11,21.8-.8,15-.4,30.1-.5,45.1,0,25-.2,50.1.4,75.2a54,54,0,0,0,.8,9.8,33.8,33.8,0,0,0,3.8,9.7c7.8,13.8,21,23.8,32.1,34.9,3.8,3.9,9.4,9,10,14.9v-1.9l-.4-29.1v.2l.4-93.1v-1.8c-.5,5.5-7.6,7.5-12,8.6a139.3,139.3,0,0,1-19.2,3c-15.9,1.7-31.9,2.5-47.9,3.1-20.8.7-41.6,1-62.5,1.1-24.4,0-48.9-.1-73.3-.4l-79.6-1.3-81.4-1.7q-39.4-.9-78.9-1.5-35.8-.6-71.7-.8c-20.2-.1-40.5,0-60.7.5-15.1.3-30.2.9-45.2,2.3l-8.2.9c-.5,0-.4,21.4-.4,18.5-.2,15-.2,29.9-.2,44.9s0,29.9.2,44.8c0,1.8.4,18.6.4,18.6,16.8-2.2,33.8-2.7,50.7-3.2,24.6-.6,49.2-.6,73.8-.5,29.5.2,59,.7,88.6,1.2l96.2,2c32.2.7,64.3,1.3,96.5,1.8,29.8.4,59.7.7,89.5.7,24.8-.1,49.6-.4,74.3-1.4,17.4-.8,34.9-1.7,52-4.4,5.7-1,16.6-2.1,18.8-8.8a15.3,15.3,0,0,0,.4-3.6c.3-5.5.2-11.1.3-16.6.2-20.6.2-41.2.2-61.7-.1-15.3.6-30.8-.6-46.1a12.6,12.6,0,0,0-.4-2.8c-.9-3-2.9-5.5-4.8-7.8-11.9-14.3-28.8-24.7-37.6-41.4a32.5,32.5,0,0,1-3.7-11.8l.2,2.3c-.2-2.1-.1-5,.1,4.8l.2,86.7q-1.2,42.1-.3,27.6l-.2,2.2c.6-7.6,5.2-13.8,10.8-18.7V1305.8c-9.3,19.5-37.8,25-53.1,9.5v126.8c4.1.2,6.1,4,6.4,7.8V1324.6c-.9,8.3-10.2,11.5-16.9,14.1-9.6,3.8-19.3,7.5-29.1,11q-28.8,10.3-58.4,18.9a994.7,994.7,0,0,1-120.8,27.1,1003.9,1003.9,0,0,1-122.4,11.7c-40.5,1.3-81.9,1.3-122-5.1-19.3-3.1-39.3-7.6-57.1-15.9-14.2-6.5-28.7-17.1-35-31.8a35.1,35.1,0,0,1-2.6-10.6v2.3c-.3-5.7-.3-1.2.2,13.7v104.2l-.2,2.2c2.5-30.6,40.5-37.3,64.4-42.4a754.4,754.4,0,0,1,94.5-13.5,934.6,934.6,0,0,1,201.3,4.9,695.8,695.8,0,0,1,104,21.6V1310.2c-51.3,12.4-104,19.1-156.6,22.9-54.3,3.8-109,4.6-163.3,1-13.5-.9-27.2-1.6-40.6-3.7-11.9-1.9-25.2-6.1-30.3-18.1v126.8c23.6-27,59.9-38.2,93.4-47.2,37.8-10.2,76.7-16.2,115.7-19.2,79.2-6.1,158.2.4,237.3,6,44.1,3.2,89.4,4.3,132.1-9.1.8-.2.5-21.1.5-18.6.1-14.9.2-29.9.2-44.8s-.1-29.9-.2-44.8l-.2-9.9a63.3,63.3,0,0,0-.3-8.7c-39.3-16.8-83.2-16.5-125.2-17.6s-83.4-2-125.1-2.6-86.2-.9-129.2-.9-86.5.1-129.7.6q-62.4.8-124.8,2.4l-14.9.4v126.8c13-1.1,26.5,1.1,39.2,3.7a204.9,204.9,0,0,1,43.3,13.4,69.2,69.2,0,0,1,17.3,10.4,48.9,48.9,0,0,0,.3-5.4c.1-4.4.1-8.8.2-13.1.1-15,.2-29.9.1-44.9s0-29.8-.1-44.8l-.2-9.9a63.3,63.3,0,0,0-.3-8.7Z"/><path class="d" d="M419,1392.4l.3,1.4a17.3,17.3,0,0,0-3.7,3.3,22.7,22.7,0,0,1-3.3,2.7,3.1,3.1,0,0,0-1.1,1.5,70,70,0,0,0-8,5c0,.3.3.7,0,.7s-.1.4-.8.4-.2.1-.5-.2a1.2,1.2,0,0,0-.5.8l-4.4,1.2c-.5,0-1.1.5-1.6.1s.2.7-.4.7l-2.9-.4c-.7,0-.2.4-.9.4s-7.8-4.8-8.3-5.7a35.2,35.2,0,0,1-6.4-13.8c.3-.7-.3-2.9-.3-3.5,0-5,2.1-12.6,4.1-18,.4-1.1,1.9-3.6,2.7-5.1l1-2.7c2.8-5.1,9.6-15.1,13.7-17,.5-.3,1.3-1.1,1.7-1.1s.8.7,1.5.7-.1-.2.5-.2a22.2,22.2,0,0,1,3.1.7c.7.1,1.4,1.1,2.4,1.6s2.6,1.2,3.3,2.7a11,11,0,0,1,.9,4.5c0,1.5-.7,1.2-.9,2.2a12.3,12.3,0,0,1-.6,2.2,16.8,16.8,0,0,1-2,3.4c-.7.2-1,1.2-1.4,1.2a4.4,4.4,0,0,0-2,0c-.3-.3,0-.4,0-.8s-.6-.1-1-.2a8.3,8.3,0,0,0-1.9-1.7c.8-2.3,2.4-5.9,2.4-6.4v-1.4h-.3c-1.2,0-5.2,5-5.2,5.4s-2,3-2.8,4.4-3.1,4.7-4.2,7.1-1.6,5.4-2.8,8.2c-.3,1.2-.9,2.7-1.2,4.1-.7,3.3-1.7,7.2-1.7,10.2,0,.4-.4.9-.4,1.5s.5,1.1.5,1.6a15.5,15.5,0,0,0,.1,2.1c0,.3,2,7.1,4.2,7.1.6,0,.5-.4.5-.7s.3.7,1,.7h1.7c1.9-.8,4.5-1.3,6.6-2.1s3.4-1.6,5.1-2.3.7-.7,1.1-1a46.4,46.4,0,0,1,4.4-2.3,2.3,2.3,0,0,0,1.4-1.3h1c.5,0,.1.3.4.6s3.7-2.7,5.1-2.8.2-.6.6-1,1.5-.4,1.6.4Zm-8.9,4.1-.4-.2-.3.6.3.3Zm2.2-1.3v-.3l-.9.5.3.2Z"/><path class="d" d="M435.6,1399.3a.8.8,0,0,0,.1.3l1.4-.5c-.7.2-.8.4-.3.9s-2.1,2.5-.7,2.6c-.8.4-1,1.6-1.3,1.9s-2.5,1.5-3.5,2.3-1.3,1.5-2.3,1.7a13.2,13.2,0,0,1-3,.9l-.6-.5c-1.1.8-1.3.4-2,.4s-.1.3-.7.3a31.9,31.9,0,0,1-3.4-1.3c-6.1-2.2-8.5-10.6-8.5-15,0-7.6,2-13.9,3.7-20.5.1-.8.9-1.5,1-2.1.4-2.1,1-5.1,1.7-7.6s2.3-6.8,3.9-11.2c.3-.8,1.2-1.7,1.5-2.7,1.1-3.3,2.7-4.5,2.6-6.7l1.1-.2c.7,0,1.4.9,2.2,1h.9c.4.9,1,2.2,1.3,3s0,1.9.4,2.5l-8.9,28.9a26.3,26.3,0,0,0-2,6.4,77.5,77.5,0,0,0-2,13c0,.4,0,2.7.1,3.8a4.9,4.9,0,0,0,1,1.5,6.1,6.1,0,0,0,2.2.7c.8,0,.8-.5,1.2-.5s.7.3,1.5.3,1-.4,3.1-1.1c.5-.4,1-.8,1.3-.8s.2.3.8.3,2.1-1.6,4.2-2.7q-.3.1,0,.6c.1-.3,0-.5.5-.5a11.3,11.3,0,0,0,3.2-1.3C436.6,1398.1,436.4,1399,435.6,1399.3Z"/><path class="d" d="M482,1394c-1,.8-1.4,1.3-.3,1.7a26.2,26.2,0,0,0-4.1,5.1c0,.1,0,.2.1.2h.3c-4,2.5-8,4.9-11.7,4.9h-1.9a9.7,9.7,0,0,1-4-1.1c-1.5-.7-2.6-2.2-4-3a22.1,22.1,0,0,1-6.7,5.1,21.8,21.8,0,0,1-4.5,1.7h-2.8c-2.7,0-10.2-4.4-10.2-7.3,0-.8-.8-1.8-.5-2.5a15,15,0,0,1-1-4.3c0-.4.1-.3.4-.7a62.1,62.1,0,0,1,1.9-10.2,47.5,47.5,0,0,1,5.3-10.7c0-.4-.1-.6-.4-.6a1.4,1.4,0,0,1,1.1-.3c.3-.8.9-.9,1.3-1.3s.4-.6.5-1.3a3.4,3.4,0,0,0,1.8.9c.5,0,.9-.4,1.4-.4s1.5,1.2,2.2,1.2.5-.1.5-.3a4.9,4.9,0,0,0,.1,1.3,2.6,2.6,0,0,1,.7,1.6c0,.4-.7,1-.7,1.6a7.4,7.4,0,0,0-1.2,1.6c-1.2,2.4-3.8,6.8-4.6,9.8s-2.7,7.6-2.7,10.8,1,2.7,2.6,2.7,5.5-2.2,7-2.9a22.6,22.6,0,0,0,2.9-2.6c1.6-1.2,3.8-3.1,2.8-5.6h-.1c-.1.1-.1.1-.1.2s.3-.3.6-.6a60.9,60.9,0,0,1,2.7-8.3c1.8-4.1,4.6-8.1,6.8-12.1a2.2,2.2,0,0,1,1-.9,8,8,0,0,1,2.3-.5c.6,0,.3.1.6.4h2.1c.4.1.6.8,1.2.8s.4-.1.7-.4c1.1,2.5,1.5,2.3,1.5,3.6a44.7,44.7,0,0,1-.6,4.6c-.3,1.4-1.2,3.7-1.8,5.9a13.1,13.1,0,0,1-1.4,3.1c-2.4,3.5-7.5,10.8-7.5,11.2s.5.9,1.5,1.1l1.4.5c.7,0,2.9-.9,3.5-.9h.6c-.1.1,0,.2.4.2s2.7-1.4,4.1-2.1.9-.1,1.4-.4a54.1,54.1,0,0,0,5-4.4l2-1v.3a.4.4,0,0,0,.1.3c-.1.4-.9,1.4-.1,2.1s-.9,1.3-1.5,1.9h0c0,.1.1.2.4.2s1.1-.7,1.6-.9Zm-24-31.9c-1,.4-2.4,1.3-3,1.3h-3.5c-2.1,0-4.1-2.3-5.4-3.8a4.5,4.5,0,0,0,0-2.3c-.3-.3-.7-.1-.7-.7,0-3.9,1.8-1.5,4-3.6a.9.9,0,0,1,.6.3c1.1,1.6,3.8.2,4.8.9s1.4,1.4,2,1.4.4,0,.7-.4.6.9.6,1.4.3,2.5.3,3.1S458,1361.3,458,1362.1Zm14.2,33.2-.7.2v-.3l.6-.3Z"/><path class="d" d="M515.8,1397.3c-.2.3.2.8.1.9a3,3,0,0,0-.8.8l.7.2h-.1c-.1.1-.2.2-.3.1s-.1,1.1-.8,1.6,0,1,.4,1.4-1.2.9-1.3,1.6-2.1,1.4-2.8,2.3-1.3,1.5-1.6,2l-3.7-.2c-1,0-5.2-2.2-5.5-3.1a27.9,27.9,0,0,1-3-8.5c-.5-1.8-.5-5.3-.6-8-.2-.1.1-.3-.1-.4-2.5,2.8-5.4,7-7.9,10-.1.1-.1.2,0,.6a28,28,0,0,1-3,4.6,15.7,15.7,0,0,1-3.2,3.2c-.7,0-1.1-.9-1.6-.8s.1.3-.5.3c-2.3.3-2.7-4.3-3-4.7a2.1,2.1,0,0,1-.9-1.6c0-.4.7-3.4.8-5.3s.9-2,1.2-2.8.2-3,.6-4.4c1.7-5,4.3-12.2,6.7-18.7,0-.3-.1-1.2-.1-1.9a18.3,18.3,0,0,1,2.6-2c.4.6,1,1.2,1.6,2a1.7,1.7,0,0,0,.3-1.5,6.2,6.2,0,0,0,2.3,1.2c0,.5-.4,1.1,0,1.6h.1l.5-.2v1c.1.6-.5,1.3-.7,2.1s-.5,3.9-.8,5.7a1.8,1.8,0,0,1-.6,1.3,11.3,11.3,0,0,0-.5,4c1.3-1.4,3.5-5.1,5.3-5.8s1.8-.1,2.9-.8a3.2,3.2,0,0,1,1.1,1.4,3.1,3.1,0,0,1,1.3-.6c.5,0,1.6,1.2,2.4,1.8h0l-.2.3c0,.2.4.3.5.3,2.2,4.3,1.7,2.7,1.9,5.1.3.6-.4,7.9-.1,11.7-.3,1.4.1,3.1.1,5a2.4,2.4,0,0,0,1.2.1c1.6,0,4.8-2.5,6.3-3.1H513c-.2,0-.3,0-.2.1v.2h.4c.6-.1,2-1.4,3.4-2.2A5.6,5.6,0,0,0,515.8,1397.3Zm-14.4-20.2v-.5h-.7v.5Z"/><path class="d" d="M546.7,1375.7c0,.3.2.4.5.4s-1.2.6-.2,1.4c-1,.5-2.3,1-3.1,1.5s.4.4.8.7-2.9,2-4.7,2.4c-.3.6-1.4,2.1-2.1,2.1s.1-.2-.2-.5-.4.3-.4.8c-1.8.4-4.1,1.3-6.3,2-.3.1,0,.3,0,.6s0-.2-.7-.2a28.3,28.3,0,0,0-4.2,1.4l-.7,1.1a9.1,9.1,0,0,0-2.7,1.5c-.7,3-1.7,8.7-1.7,9.4s.9,4,.9,4.5-1.1,1.3-1.1,2.1l-1.4.2c-.7,0-.8-1.1-1.1-1.5-2.8-2.5-2.4-4.8-2.7-7.1s.3-4.9.2-9.3c0-.7-2.5-3.7-2.5-4.2s.4-2.3.4-3.7a1.2,1.2,0,0,0,.5-.6c.4-.1.6-.4,1.1-.4s.1.3.8.3a1.7,1.7,0,0,0,1.3-1.4c1-2.7,2.1-11.2,3.1-15.1s2.3-8.1,3.4-12.2c.5-1.9,1.2-4.5,2-6.8s.7-4.8,2.6-6a3.2,3.2,0,0,1,1.5-.6c.7,0,1.4,1.5,2,1.5h.7v.4c0,.8,1.8,3.6,1.8,4.4a14.3,14.3,0,0,1-1.1,3.8,4.9,4.9,0,0,1,.3,1.5l-5.6,18c-.4,2.4-1.1,5.3-1.8,8v.4c.6.4,1,.2,1.8.2a5,5,0,0,1,1.9-.3c.7,0,.1.5.8.5s1.5-.5,2.3-.6c4.1-.7,8.6-1.1,14.4-1.5C547.5,1375.2,547.1,1375.3,546.7,1375.7Z"/><path class="e" d="M125.8,1228.7l.5,117,.5,116.5.2,65.7c0,5.1,9.9,4.9,9.9-.2l-.5-117.1-.5-116.5-.2-65.7c-.1-5-9.9-4.8-9.9.3Z"/><path class="e" d="M136.6,1532.7c42.6-.1,85.1,1.9,127.7,2.7s85.2,1,127.7.9,86.1-.5,129.1-1.2,85-1.5,127.5-2.3,84.4-1.3,126.6-.1l15.2.5c6.2.2,3.7-8.5-1.2-8.7-41.9-1.6-83.8-1.3-125.7-.6s-84.8,1.6-127.2,2.3-86.3,1.2-129.5,1.4-85.3,0-127.9-.6-85-2.5-127.5-2.9H135.3c-6.1.1-3.6,8.8,1.3,8.7Z"/><path class="e" d="M782.7,1227.3q-1.4,56.9-1.2,113.7c.1,37.9.6,75.7,1.5,113.6.6,21.2,1.2,42.4,2.1,63.7,0,2.3,2.6,4,4.7,4.4s4.8-.1,4.7-2.5c-1.4-37.8-2.4-75.7-3-113.5s-.7-75.8-.3-113.7c.1-21.2.5-42.5.9-63.8.1-4.3-9.3-6.8-9.4-1.9Z"/><path class="e" d="M132,1231.7l253.6.3,252.4.3H780.4c2.3,0,3.6-2.2,3-4.4a6,6,0,0,0-5.7-3.9l-253.7-.3-252.4-.3-142.3-.2a3.3,3.3,0,0,0-3.1,4.4,6.2,6.2,0,0,0,5.8,4Z"/></svg>